%TF.GenerationSoftware,KiCad,Pcbnew,(6.0.2)*%
%TF.CreationDate,2022-04-27T22:08:36+02:00*%
%TF.ProjectId,4 Channel Mixer,34204368-616e-46e6-956c-204d69786572,1.1*%
%TF.SameCoordinates,Original*%
%TF.FileFunction,Legend,Bot*%
%TF.FilePolarity,Positive*%
%FSLAX46Y46*%
G04 Gerber Fmt 4.6, Leading zero omitted, Abs format (unit mm)*
G04 Created by KiCad (PCBNEW (6.0.2)) date 2022-04-27 22:08:36*
%MOMM*%
%LPD*%
G01*
G04 APERTURE LIST*
%ADD10C,0.150000*%
%ADD11C,0.120000*%
G04 APERTURE END LIST*
D10*
%TO.C,J6*%
X65583333Y-140952380D02*
X65583333Y-141666666D01*
X65630952Y-141809523D01*
X65726190Y-141904761D01*
X65869047Y-141952380D01*
X65964285Y-141952380D01*
X64678571Y-140952380D02*
X64869047Y-140952380D01*
X64964285Y-141000000D01*
X65011904Y-141047619D01*
X65107142Y-141190476D01*
X65154761Y-141380952D01*
X65154761Y-141761904D01*
X65107142Y-141857142D01*
X65059523Y-141904761D01*
X64964285Y-141952380D01*
X64773809Y-141952380D01*
X64678571Y-141904761D01*
X64630952Y-141857142D01*
X64583333Y-141761904D01*
X64583333Y-141523809D01*
X64630952Y-141428571D01*
X64678571Y-141380952D01*
X64773809Y-141333333D01*
X64964285Y-141333333D01*
X65059523Y-141380952D01*
X65107142Y-141428571D01*
X65154761Y-141523809D01*
%TO.C,J5*%
X65583333Y-130952380D02*
X65583333Y-131666666D01*
X65630952Y-131809523D01*
X65726190Y-131904761D01*
X65869047Y-131952380D01*
X65964285Y-131952380D01*
X64630952Y-130952380D02*
X65107142Y-130952380D01*
X65154761Y-131428571D01*
X65107142Y-131380952D01*
X65011904Y-131333333D01*
X64773809Y-131333333D01*
X64678571Y-131380952D01*
X64630952Y-131428571D01*
X64583333Y-131523809D01*
X64583333Y-131761904D01*
X64630952Y-131857142D01*
X64678571Y-131904761D01*
X64773809Y-131952380D01*
X65011904Y-131952380D01*
X65107142Y-131904761D01*
X65154761Y-131857142D01*
%TO.C,RV4*%
X37345238Y-111452380D02*
X37678571Y-110976190D01*
X37916666Y-111452380D02*
X37916666Y-110452380D01*
X37535714Y-110452380D01*
X37440476Y-110500000D01*
X37392857Y-110547619D01*
X37345238Y-110642857D01*
X37345238Y-110785714D01*
X37392857Y-110880952D01*
X37440476Y-110928571D01*
X37535714Y-110976190D01*
X37916666Y-110976190D01*
X37059523Y-110452380D02*
X36726190Y-111452380D01*
X36392857Y-110452380D01*
X35630952Y-110785714D02*
X35630952Y-111452380D01*
X35869047Y-110404761D02*
X36107142Y-111119047D01*
X35488095Y-111119047D01*
%TO.C,RV5*%
X37345238Y-131452380D02*
X37678571Y-130976190D01*
X37916666Y-131452380D02*
X37916666Y-130452380D01*
X37535714Y-130452380D01*
X37440476Y-130500000D01*
X37392857Y-130547619D01*
X37345238Y-130642857D01*
X37345238Y-130785714D01*
X37392857Y-130880952D01*
X37440476Y-130928571D01*
X37535714Y-130976190D01*
X37916666Y-130976190D01*
X37059523Y-130452380D02*
X36726190Y-131452380D01*
X36392857Y-130452380D01*
X35583333Y-130452380D02*
X36059523Y-130452380D01*
X36107142Y-130928571D01*
X36059523Y-130880952D01*
X35964285Y-130833333D01*
X35726190Y-130833333D01*
X35630952Y-130880952D01*
X35583333Y-130928571D01*
X35535714Y-131023809D01*
X35535714Y-131261904D01*
X35583333Y-131357142D01*
X35630952Y-131404761D01*
X35726190Y-131452380D01*
X35964285Y-131452380D01*
X36059523Y-131404761D01*
X36107142Y-131357142D01*
%TO.C,RV3*%
X37345238Y-91452380D02*
X37678571Y-90976190D01*
X37916666Y-91452380D02*
X37916666Y-90452380D01*
X37535714Y-90452380D01*
X37440476Y-90500000D01*
X37392857Y-90547619D01*
X37345238Y-90642857D01*
X37345238Y-90785714D01*
X37392857Y-90880952D01*
X37440476Y-90928571D01*
X37535714Y-90976190D01*
X37916666Y-90976190D01*
X37059523Y-90452380D02*
X36726190Y-91452380D01*
X36392857Y-90452380D01*
X36154761Y-90452380D02*
X35535714Y-90452380D01*
X35869047Y-90833333D01*
X35726190Y-90833333D01*
X35630952Y-90880952D01*
X35583333Y-90928571D01*
X35535714Y-91023809D01*
X35535714Y-91261904D01*
X35583333Y-91357142D01*
X35630952Y-91404761D01*
X35726190Y-91452380D01*
X36011904Y-91452380D01*
X36107142Y-91404761D01*
X36154761Y-91357142D01*
%TO.C,J4*%
X65583333Y-111202380D02*
X65583333Y-111916666D01*
X65630952Y-112059523D01*
X65726190Y-112154761D01*
X65869047Y-112202380D01*
X65964285Y-112202380D01*
X64678571Y-111535714D02*
X64678571Y-112202380D01*
X64916666Y-111154761D02*
X65154761Y-111869047D01*
X64535714Y-111869047D01*
%TO.C,J2*%
X65583333Y-70952380D02*
X65583333Y-71666666D01*
X65630952Y-71809523D01*
X65726190Y-71904761D01*
X65869047Y-71952380D01*
X65964285Y-71952380D01*
X65154761Y-71047619D02*
X65107142Y-71000000D01*
X65011904Y-70952380D01*
X64773809Y-70952380D01*
X64678571Y-71000000D01*
X64630952Y-71047619D01*
X64583333Y-71142857D01*
X64583333Y-71238095D01*
X64630952Y-71380952D01*
X65202380Y-71952380D01*
X64583333Y-71952380D01*
%TO.C,J1*%
X65583333Y-50952380D02*
X65583333Y-51666666D01*
X65630952Y-51809523D01*
X65726190Y-51904761D01*
X65869047Y-51952380D01*
X65964285Y-51952380D01*
X64583333Y-51952380D02*
X65154761Y-51952380D01*
X64869047Y-51952380D02*
X64869047Y-50952380D01*
X64964285Y-51095238D01*
X65059523Y-51190476D01*
X65154761Y-51238095D01*
%TO.C,RV1*%
X37345238Y-51202380D02*
X37678571Y-50726190D01*
X37916666Y-51202380D02*
X37916666Y-50202380D01*
X37535714Y-50202380D01*
X37440476Y-50250000D01*
X37392857Y-50297619D01*
X37345238Y-50392857D01*
X37345238Y-50535714D01*
X37392857Y-50630952D01*
X37440476Y-50678571D01*
X37535714Y-50726190D01*
X37916666Y-50726190D01*
X37059523Y-50202380D02*
X36726190Y-51202380D01*
X36392857Y-50202380D01*
X35535714Y-51202380D02*
X36107142Y-51202380D01*
X35821428Y-51202380D02*
X35821428Y-50202380D01*
X35916666Y-50345238D01*
X36011904Y-50440476D01*
X36107142Y-50488095D01*
%TO.C,J3*%
X65583333Y-91202380D02*
X65583333Y-91916666D01*
X65630952Y-92059523D01*
X65726190Y-92154761D01*
X65869047Y-92202380D01*
X65964285Y-92202380D01*
X65202380Y-91202380D02*
X64583333Y-91202380D01*
X64916666Y-91583333D01*
X64773809Y-91583333D01*
X64678571Y-91630952D01*
X64630952Y-91678571D01*
X64583333Y-91773809D01*
X64583333Y-92011904D01*
X64630952Y-92107142D01*
X64678571Y-92154761D01*
X64773809Y-92202380D01*
X65059523Y-92202380D01*
X65154761Y-92154761D01*
X65202380Y-92107142D01*
%TO.C,RV2*%
X37345238Y-71202380D02*
X37678571Y-70726190D01*
X37916666Y-71202380D02*
X37916666Y-70202380D01*
X37535714Y-70202380D01*
X37440476Y-70250000D01*
X37392857Y-70297619D01*
X37345238Y-70392857D01*
X37345238Y-70535714D01*
X37392857Y-70630952D01*
X37440476Y-70678571D01*
X37535714Y-70726190D01*
X37916666Y-70726190D01*
X37059523Y-70202380D02*
X36726190Y-71202380D01*
X36392857Y-70202380D01*
X36107142Y-70297619D02*
X36059523Y-70250000D01*
X35964285Y-70202380D01*
X35726190Y-70202380D01*
X35630952Y-70250000D01*
X35583333Y-70297619D01*
X35535714Y-70392857D01*
X35535714Y-70488095D01*
X35583333Y-70630952D01*
X36154761Y-71202380D01*
X35535714Y-71202380D01*
D11*
%TO.C,J6*%
X64000000Y-149500000D02*
X74500000Y-149500000D01*
X64000000Y-140500000D02*
X64000000Y-149500000D01*
X74500000Y-140500000D02*
X74500000Y-149500000D01*
X64000000Y-140500000D02*
X74500000Y-140500000D01*
X73000000Y-145000000D02*
G75*
G03*
X73000000Y-145000000I-3000000J0D01*
G01*
%TO.C,J5*%
X64000000Y-130500000D02*
X64000000Y-139500000D01*
X64000000Y-130500000D02*
X74500000Y-130500000D01*
X74500000Y-130500000D02*
X74500000Y-139500000D01*
X64000000Y-139500000D02*
X74500000Y-139500000D01*
X73000000Y-135000000D02*
G75*
G03*
X73000000Y-135000000I-3000000J0D01*
G01*
%TO.C,RV4*%
X44870000Y-113065000D02*
X44870000Y-110005000D01*
X35130000Y-110005000D02*
X44870000Y-110005000D01*
X38340000Y-121595000D02*
X39170000Y-121595000D01*
X40790000Y-121595000D02*
X41320000Y-121595000D01*
X35130000Y-113065000D02*
X35130000Y-110005000D01*
X35130000Y-121595000D02*
X35130000Y-116875000D01*
X43690000Y-121595000D02*
X44870000Y-121595000D01*
X35130000Y-121595000D02*
X36620000Y-121595000D01*
X44880000Y-121595000D02*
X44880000Y-116875000D01*
%TO.C,RV5*%
X35130000Y-141595000D02*
X35130000Y-136875000D01*
X35130000Y-141595000D02*
X36620000Y-141595000D01*
X35130000Y-133065000D02*
X35130000Y-130005000D01*
X38340000Y-141595000D02*
X39170000Y-141595000D01*
X43690000Y-141595000D02*
X44870000Y-141595000D01*
X44870000Y-133065000D02*
X44870000Y-130005000D01*
X40790000Y-141595000D02*
X41320000Y-141595000D01*
X35130000Y-130005000D02*
X44870000Y-130005000D01*
X44880000Y-141595000D02*
X44880000Y-136875000D01*
%TO.C,RV3*%
X35130000Y-90005000D02*
X44870000Y-90005000D01*
X44880000Y-101595000D02*
X44880000Y-96875000D01*
X38340000Y-101595000D02*
X39170000Y-101595000D01*
X35130000Y-101595000D02*
X35130000Y-96875000D01*
X44870000Y-93065000D02*
X44870000Y-90005000D01*
X40790000Y-101595000D02*
X41320000Y-101595000D01*
X35130000Y-93065000D02*
X35130000Y-90005000D01*
X35130000Y-101595000D02*
X36620000Y-101595000D01*
X43690000Y-101595000D02*
X44870000Y-101595000D01*
%TO.C,J4*%
X64000000Y-110500000D02*
X74500000Y-110500000D01*
X64000000Y-110500000D02*
X64000000Y-119500000D01*
X64000000Y-119500000D02*
X74500000Y-119500000D01*
X74500000Y-110500000D02*
X74500000Y-119500000D01*
X73000000Y-115000000D02*
G75*
G03*
X73000000Y-115000000I-3000000J0D01*
G01*
%TO.C,J2*%
X64000000Y-70500000D02*
X64000000Y-79500000D01*
X74500000Y-70500000D02*
X74500000Y-79500000D01*
X64000000Y-70500000D02*
X74500000Y-70500000D01*
X64000000Y-79500000D02*
X74500000Y-79500000D01*
X73000000Y-75000000D02*
G75*
G03*
X73000000Y-75000000I-3000000J0D01*
G01*
%TO.C,J1*%
X64000000Y-50500000D02*
X64000000Y-59500000D01*
X64000000Y-59500000D02*
X74500000Y-59500000D01*
X64000000Y-50500000D02*
X74500000Y-50500000D01*
X74500000Y-50500000D02*
X74500000Y-59500000D01*
X73000000Y-55000000D02*
G75*
G03*
X73000000Y-55000000I-3000000J0D01*
G01*
%TO.C,RV1*%
X38340000Y-61595000D02*
X39170000Y-61595000D01*
X35130000Y-53065000D02*
X35130000Y-50005000D01*
X35130000Y-61595000D02*
X36620000Y-61595000D01*
X35130000Y-61595000D02*
X35130000Y-56875000D01*
X40790000Y-61595000D02*
X41320000Y-61595000D01*
X44880000Y-61595000D02*
X44880000Y-56875000D01*
X43690000Y-61595000D02*
X44870000Y-61595000D01*
X44870000Y-53065000D02*
X44870000Y-50005000D01*
X35130000Y-50005000D02*
X44870000Y-50005000D01*
%TO.C,J3*%
X64000000Y-99500000D02*
X74500000Y-99500000D01*
X64000000Y-90500000D02*
X64000000Y-99500000D01*
X74500000Y-90500000D02*
X74500000Y-99500000D01*
X64000000Y-90500000D02*
X74500000Y-90500000D01*
X73000000Y-95000000D02*
G75*
G03*
X73000000Y-95000000I-3000000J0D01*
G01*
%TO.C,RV2*%
X43690000Y-81595000D02*
X44870000Y-81595000D01*
X35130000Y-73065000D02*
X35130000Y-70005000D01*
X40790000Y-81595000D02*
X41320000Y-81595000D01*
X35130000Y-81595000D02*
X35130000Y-76875000D01*
X35130000Y-81595000D02*
X36620000Y-81595000D01*
X38340000Y-81595000D02*
X39170000Y-81595000D01*
X44880000Y-81595000D02*
X44880000Y-76875000D01*
X35130000Y-70005000D02*
X44870000Y-70005000D01*
X44870000Y-73065000D02*
X44870000Y-70005000D01*
%TD*%
M02*
