%TF.GenerationSoftware,KiCad,Pcbnew,(6.0.2)*%
%TF.CreationDate,2022-04-27T22:08:36+02:00*%
%TF.ProjectId,4 Channel Mixer,34204368-616e-46e6-956c-204d69786572,1.1*%
%TF.SameCoordinates,Original*%
%TF.FileFunction,Legend,Top*%
%TF.FilePolarity,Positive*%
%FSLAX46Y46*%
G04 Gerber Fmt 4.6, Leading zero omitted, Abs format (unit mm)*
G04 Created by KiCad (PCBNEW (6.0.2)) date 2022-04-27 22:08:36*
%MOMM*%
%LPD*%
G01*
G04 APERTURE LIST*
%ADD10C,0.150000*%
%ADD11C,0.120000*%
G04 APERTURE END LIST*
D10*
X78552380Y-132704196D02*
X78028571Y-132638720D01*
X77933333Y-132674434D01*
X77885714Y-132763720D01*
X77885714Y-132954196D01*
X77933333Y-133055386D01*
X78504761Y-132698244D02*
X78552380Y-132799434D01*
X78552380Y-133037529D01*
X78504761Y-133126815D01*
X78409523Y-133162529D01*
X78314285Y-133150625D01*
X78219047Y-133091101D01*
X78171428Y-132989910D01*
X78171428Y-132751815D01*
X78123809Y-132650625D01*
X78552380Y-131656577D02*
X78076190Y-131930386D01*
X78552380Y-132228005D02*
X77552380Y-132103005D01*
X77552380Y-131722053D01*
X77600000Y-131632767D01*
X77647619Y-131591101D01*
X77742857Y-131555386D01*
X77885714Y-131573244D01*
X77980952Y-131632767D01*
X78028571Y-131686339D01*
X78076190Y-131787529D01*
X78076190Y-132168482D01*
X77552380Y-131245863D02*
X77552380Y-130674434D01*
X78552380Y-131085148D02*
X77552380Y-130960148D01*
X77885714Y-130478005D02*
X78552380Y-130323244D01*
X77885714Y-130001815D02*
X78552380Y-130323244D01*
X78790476Y-130448244D01*
X78838095Y-130501815D01*
X78885714Y-130603005D01*
X77552380Y-129722053D02*
X77552380Y-129150625D01*
X78552380Y-129561339D02*
X77552380Y-129436339D01*
X78504761Y-128555386D02*
X78552380Y-128656577D01*
X78552380Y-128847053D01*
X78504761Y-128936339D01*
X78409523Y-128972053D01*
X78028571Y-128924434D01*
X77933333Y-128864910D01*
X77885714Y-128763720D01*
X77885714Y-128573244D01*
X77933333Y-128483958D01*
X78028571Y-128448244D01*
X78123809Y-128460148D01*
X78219047Y-128948244D01*
X78552380Y-127656577D02*
X78028571Y-127591101D01*
X77933333Y-127626815D01*
X77885714Y-127716101D01*
X77885714Y-127906577D01*
X77933333Y-128007767D01*
X78504761Y-127650625D02*
X78552380Y-127751815D01*
X78552380Y-127989910D01*
X78504761Y-128079196D01*
X78409523Y-128114910D01*
X78314285Y-128103005D01*
X78219047Y-128043482D01*
X78171428Y-127942291D01*
X78171428Y-127704196D01*
X78123809Y-127603005D01*
X78552380Y-126418482D02*
X77552380Y-126293482D01*
X78266666Y-126049434D01*
X77552380Y-125626815D01*
X78552380Y-125751815D01*
X77885714Y-124763720D02*
X78552380Y-124847053D01*
X77885714Y-125192291D02*
X78409523Y-125257767D01*
X78504761Y-125222053D01*
X78552380Y-125132767D01*
X78552380Y-124989910D01*
X78504761Y-124888720D01*
X78457142Y-124835148D01*
X78504761Y-124412529D02*
X78552380Y-124323244D01*
X78552380Y-124132767D01*
X78504761Y-124031577D01*
X78409523Y-123972053D01*
X78361904Y-123966101D01*
X78266666Y-124001815D01*
X78219047Y-124091101D01*
X78219047Y-124233958D01*
X78171428Y-124323244D01*
X78076190Y-124358958D01*
X78028571Y-124353005D01*
X77933333Y-124293482D01*
X77885714Y-124192291D01*
X77885714Y-124049434D01*
X77933333Y-123960148D01*
X78552380Y-123561339D02*
X77885714Y-123478005D01*
X77552380Y-123436339D02*
X77600000Y-123489910D01*
X77647619Y-123448244D01*
X77600000Y-123394672D01*
X77552380Y-123436339D01*
X77647619Y-123448244D01*
X78504761Y-122650625D02*
X78552380Y-122751815D01*
X78552380Y-122942291D01*
X78504761Y-123031577D01*
X78457142Y-123073244D01*
X78361904Y-123108958D01*
X78076190Y-123073244D01*
X77980952Y-123013720D01*
X77933333Y-122960148D01*
X77885714Y-122858958D01*
X77885714Y-122668482D01*
X77933333Y-122579196D01*
X78028571Y-121400625D02*
X78028571Y-121067291D01*
X78552380Y-120989910D02*
X78552380Y-121466101D01*
X77552380Y-121341101D01*
X77552380Y-120864910D01*
X78552380Y-120418482D02*
X78504761Y-120507767D01*
X78409523Y-120543482D01*
X77552380Y-120436339D01*
X78504761Y-119650625D02*
X78552380Y-119751815D01*
X78552380Y-119942291D01*
X78504761Y-120031577D01*
X78409523Y-120067291D01*
X78028571Y-120019672D01*
X77933333Y-119960148D01*
X77885714Y-119858958D01*
X77885714Y-119668482D01*
X77933333Y-119579196D01*
X78028571Y-119543482D01*
X78123809Y-119555386D01*
X78219047Y-120043482D01*
X78504761Y-118745863D02*
X78552380Y-118847053D01*
X78552380Y-119037529D01*
X78504761Y-119126815D01*
X78457142Y-119168482D01*
X78361904Y-119204196D01*
X78076190Y-119168482D01*
X77980952Y-119108958D01*
X77933333Y-119055386D01*
X77885714Y-118954196D01*
X77885714Y-118763720D01*
X77933333Y-118674434D01*
X77885714Y-118382767D02*
X77885714Y-118001815D01*
X77552380Y-118198244D02*
X78409523Y-118305386D01*
X78504761Y-118269672D01*
X78552380Y-118180386D01*
X78552380Y-118085148D01*
X78552380Y-117751815D02*
X77885714Y-117668482D01*
X78076190Y-117692291D02*
X77980952Y-117632767D01*
X77933333Y-117579196D01*
X77885714Y-117478005D01*
X77885714Y-117382767D01*
X78552380Y-116989910D02*
X78504761Y-117079196D01*
X78457142Y-117120863D01*
X78361904Y-117156577D01*
X78076190Y-117120863D01*
X77980952Y-117061339D01*
X77933333Y-117007767D01*
X77885714Y-116906577D01*
X77885714Y-116763720D01*
X77933333Y-116674434D01*
X77980952Y-116632767D01*
X78076190Y-116597053D01*
X78361904Y-116632767D01*
X78457142Y-116692291D01*
X78504761Y-116745863D01*
X78552380Y-116847053D01*
X78552380Y-116989910D01*
X77885714Y-116144672D02*
X78552380Y-116228005D01*
X77980952Y-116156577D02*
X77933333Y-116103005D01*
X77885714Y-116001815D01*
X77885714Y-115858958D01*
X77933333Y-115769672D01*
X78028571Y-115733958D01*
X78552380Y-115799434D01*
X78552380Y-115323244D02*
X77885714Y-115239910D01*
X77552380Y-115198244D02*
X77600000Y-115251815D01*
X77647619Y-115210148D01*
X77600000Y-115156577D01*
X77552380Y-115198244D01*
X77647619Y-115210148D01*
X78504761Y-114412529D02*
X78552380Y-114513720D01*
X78552380Y-114704196D01*
X78504761Y-114793482D01*
X78457142Y-114835148D01*
X78361904Y-114870863D01*
X78076190Y-114835148D01*
X77980952Y-114775625D01*
X77933333Y-114722053D01*
X77885714Y-114620863D01*
X77885714Y-114430386D01*
X77933333Y-114341101D01*
X78504761Y-114031577D02*
X78552380Y-113942291D01*
X78552380Y-113751815D01*
X78504761Y-113650625D01*
X78409523Y-113591101D01*
X78361904Y-113585148D01*
X78266666Y-113620863D01*
X78219047Y-113710148D01*
X78219047Y-113853005D01*
X78171428Y-113942291D01*
X78076190Y-113978005D01*
X78028571Y-113972053D01*
X77933333Y-113912529D01*
X77885714Y-113811339D01*
X77885714Y-113668482D01*
X77933333Y-113579196D01*
X67542857Y-84947380D02*
X67209523Y-84471190D01*
X66971428Y-84947380D02*
X66971428Y-83947380D01*
X67352380Y-83947380D01*
X67447619Y-83995000D01*
X67495238Y-84042619D01*
X67542857Y-84137857D01*
X67542857Y-84280714D01*
X67495238Y-84375952D01*
X67447619Y-84423571D01*
X67352380Y-84471190D01*
X66971428Y-84471190D01*
X67828571Y-83947380D02*
X68400000Y-83947380D01*
X68114285Y-84947380D02*
X68114285Y-83947380D01*
X68590476Y-83947380D02*
X69161904Y-83947380D01*
X68876190Y-84947380D02*
X68876190Y-83947380D01*
X70685714Y-84280714D02*
X70685714Y-84947380D01*
X70447619Y-83899761D02*
X70209523Y-84614047D01*
X70828571Y-84614047D01*
X71780952Y-84852142D02*
X71733333Y-84899761D01*
X71590476Y-84947380D01*
X71495238Y-84947380D01*
X71352380Y-84899761D01*
X71257142Y-84804523D01*
X71209523Y-84709285D01*
X71161904Y-84518809D01*
X71161904Y-84375952D01*
X71209523Y-84185476D01*
X71257142Y-84090238D01*
X71352380Y-83995000D01*
X71495238Y-83947380D01*
X71590476Y-83947380D01*
X71733333Y-83995000D01*
X71780952Y-84042619D01*
X72209523Y-84947380D02*
X72209523Y-83947380D01*
X72542857Y-84661666D01*
X72876190Y-83947380D01*
X72876190Y-84947380D01*
X73257142Y-83947380D02*
X73923809Y-84947380D01*
X73923809Y-83947380D02*
X73257142Y-84947380D01*
X64876190Y-85890714D02*
X64876190Y-86557380D01*
X64638095Y-85509761D02*
X64400000Y-86224047D01*
X65019047Y-86224047D01*
X66733333Y-86462142D02*
X66685714Y-86509761D01*
X66542857Y-86557380D01*
X66447619Y-86557380D01*
X66304761Y-86509761D01*
X66209523Y-86414523D01*
X66161904Y-86319285D01*
X66114285Y-86128809D01*
X66114285Y-85985952D01*
X66161904Y-85795476D01*
X66209523Y-85700238D01*
X66304761Y-85605000D01*
X66447619Y-85557380D01*
X66542857Y-85557380D01*
X66685714Y-85605000D01*
X66733333Y-85652619D01*
X67161904Y-86557380D02*
X67161904Y-85557380D01*
X67590476Y-86557380D02*
X67590476Y-86033571D01*
X67542857Y-85938333D01*
X67447619Y-85890714D01*
X67304761Y-85890714D01*
X67209523Y-85938333D01*
X67161904Y-85985952D01*
X68495238Y-86557380D02*
X68495238Y-86033571D01*
X68447619Y-85938333D01*
X68352380Y-85890714D01*
X68161904Y-85890714D01*
X68066666Y-85938333D01*
X68495238Y-86509761D02*
X68400000Y-86557380D01*
X68161904Y-86557380D01*
X68066666Y-86509761D01*
X68019047Y-86414523D01*
X68019047Y-86319285D01*
X68066666Y-86224047D01*
X68161904Y-86176428D01*
X68400000Y-86176428D01*
X68495238Y-86128809D01*
X68971428Y-85890714D02*
X68971428Y-86557380D01*
X68971428Y-85985952D02*
X69019047Y-85938333D01*
X69114285Y-85890714D01*
X69257142Y-85890714D01*
X69352380Y-85938333D01*
X69400000Y-86033571D01*
X69400000Y-86557380D01*
X69876190Y-85890714D02*
X69876190Y-86557380D01*
X69876190Y-85985952D02*
X69923809Y-85938333D01*
X70019047Y-85890714D01*
X70161904Y-85890714D01*
X70257142Y-85938333D01*
X70304761Y-86033571D01*
X70304761Y-86557380D01*
X71161904Y-86509761D02*
X71066666Y-86557380D01*
X70876190Y-86557380D01*
X70780952Y-86509761D01*
X70733333Y-86414523D01*
X70733333Y-86033571D01*
X70780952Y-85938333D01*
X70876190Y-85890714D01*
X71066666Y-85890714D01*
X71161904Y-85938333D01*
X71209523Y-86033571D01*
X71209523Y-86128809D01*
X70733333Y-86224047D01*
X71780952Y-86557380D02*
X71685714Y-86509761D01*
X71638095Y-86414523D01*
X71638095Y-85557380D01*
X72923809Y-86557380D02*
X72923809Y-85557380D01*
X73257142Y-86271666D01*
X73590476Y-85557380D01*
X73590476Y-86557380D01*
X74066666Y-86557380D02*
X74066666Y-85890714D01*
X74066666Y-85557380D02*
X74019047Y-85605000D01*
X74066666Y-85652619D01*
X74114285Y-85605000D01*
X74066666Y-85557380D01*
X74066666Y-85652619D01*
X74447619Y-86557380D02*
X74971428Y-85890714D01*
X74447619Y-85890714D02*
X74971428Y-86557380D01*
X75733333Y-86509761D02*
X75638095Y-86557380D01*
X75447619Y-86557380D01*
X75352380Y-86509761D01*
X75304761Y-86414523D01*
X75304761Y-86033571D01*
X75352380Y-85938333D01*
X75447619Y-85890714D01*
X75638095Y-85890714D01*
X75733333Y-85938333D01*
X75780952Y-86033571D01*
X75780952Y-86128809D01*
X75304761Y-86224047D01*
X76209523Y-86557380D02*
X76209523Y-85890714D01*
X76209523Y-86081190D02*
X76257142Y-85985952D01*
X76304761Y-85938333D01*
X76400000Y-85890714D01*
X76495238Y-85890714D01*
%TO.C,R6*%
X48583333Y-135702380D02*
X48250000Y-135226190D01*
X48011904Y-135702380D02*
X48011904Y-134702380D01*
X48392857Y-134702380D01*
X48488095Y-134750000D01*
X48535714Y-134797619D01*
X48583333Y-134892857D01*
X48583333Y-135035714D01*
X48535714Y-135130952D01*
X48488095Y-135178571D01*
X48392857Y-135226190D01*
X48011904Y-135226190D01*
X49440476Y-134702380D02*
X49250000Y-134702380D01*
X49154761Y-134750000D01*
X49107142Y-134797619D01*
X49011904Y-134940476D01*
X48964285Y-135130952D01*
X48964285Y-135511904D01*
X49011904Y-135607142D01*
X49059523Y-135654761D01*
X49154761Y-135702380D01*
X49345238Y-135702380D01*
X49440476Y-135654761D01*
X49488095Y-135607142D01*
X49535714Y-135511904D01*
X49535714Y-135273809D01*
X49488095Y-135178571D01*
X49440476Y-135130952D01*
X49345238Y-135083333D01*
X49154761Y-135083333D01*
X49059523Y-135130952D01*
X49011904Y-135178571D01*
X48964285Y-135273809D01*
%TO.C,D2*%
X49511904Y-77782380D02*
X49511904Y-76782380D01*
X49750000Y-76782380D01*
X49892857Y-76830000D01*
X49988095Y-76925238D01*
X50035714Y-77020476D01*
X50083333Y-77210952D01*
X50083333Y-77353809D01*
X50035714Y-77544285D01*
X49988095Y-77639523D01*
X49892857Y-77734761D01*
X49750000Y-77782380D01*
X49511904Y-77782380D01*
X50464285Y-76877619D02*
X50511904Y-76830000D01*
X50607142Y-76782380D01*
X50845238Y-76782380D01*
X50940476Y-76830000D01*
X50988095Y-76877619D01*
X51035714Y-76972857D01*
X51035714Y-77068095D01*
X50988095Y-77210952D01*
X50416666Y-77782380D01*
X51035714Y-77782380D01*
%TO.C,U2*%
X55438095Y-136452380D02*
X55438095Y-137261904D01*
X55485714Y-137357142D01*
X55533333Y-137404761D01*
X55628571Y-137452380D01*
X55819047Y-137452380D01*
X55914285Y-137404761D01*
X55961904Y-137357142D01*
X56009523Y-137261904D01*
X56009523Y-136452380D01*
X56438095Y-136547619D02*
X56485714Y-136500000D01*
X56580952Y-136452380D01*
X56819047Y-136452380D01*
X56914285Y-136500000D01*
X56961904Y-136547619D01*
X57009523Y-136642857D01*
X57009523Y-136738095D01*
X56961904Y-136880952D01*
X56390476Y-137452380D01*
X57009523Y-137452380D01*
%TO.C,C1*%
X58083333Y-77857143D02*
X58035714Y-77904762D01*
X57892857Y-77952381D01*
X57797619Y-77952381D01*
X57654761Y-77904762D01*
X57559523Y-77809524D01*
X57511904Y-77714286D01*
X57464285Y-77523810D01*
X57464285Y-77380953D01*
X57511904Y-77190477D01*
X57559523Y-77095239D01*
X57654761Y-77000001D01*
X57797619Y-76952381D01*
X57892857Y-76952381D01*
X58035714Y-77000001D01*
X58083333Y-77047620D01*
X59035714Y-77952381D02*
X58464285Y-77952381D01*
X58750000Y-77952381D02*
X58750000Y-76952381D01*
X58654761Y-77095239D01*
X58559523Y-77190477D01*
X58464285Y-77238096D01*
%TO.C,R1*%
X36583333Y-67202380D02*
X36250000Y-66726190D01*
X36011904Y-67202380D02*
X36011904Y-66202380D01*
X36392857Y-66202380D01*
X36488095Y-66250000D01*
X36535714Y-66297619D01*
X36583333Y-66392857D01*
X36583333Y-66535714D01*
X36535714Y-66630952D01*
X36488095Y-66678571D01*
X36392857Y-66726190D01*
X36011904Y-66726190D01*
X37535714Y-67202380D02*
X36964285Y-67202380D01*
X37250000Y-67202380D02*
X37250000Y-66202380D01*
X37154761Y-66345238D01*
X37059523Y-66440476D01*
X36964285Y-66488095D01*
%TO.C,C5*%
X57583333Y-147107142D02*
X57535714Y-147154761D01*
X57392857Y-147202380D01*
X57297619Y-147202380D01*
X57154761Y-147154761D01*
X57059523Y-147059523D01*
X57011904Y-146964285D01*
X56964285Y-146773809D01*
X56964285Y-146630952D01*
X57011904Y-146440476D01*
X57059523Y-146345238D01*
X57154761Y-146250000D01*
X57297619Y-146202380D01*
X57392857Y-146202380D01*
X57535714Y-146250000D01*
X57583333Y-146297619D01*
X58488095Y-146202380D02*
X58011904Y-146202380D01*
X57964285Y-146678571D01*
X58011904Y-146630952D01*
X58107142Y-146583333D01*
X58345238Y-146583333D01*
X58440476Y-146630952D01*
X58488095Y-146678571D01*
X58535714Y-146773809D01*
X58535714Y-147011904D01*
X58488095Y-147107142D01*
X58440476Y-147154761D01*
X58345238Y-147202380D01*
X58107142Y-147202380D01*
X58011904Y-147154761D01*
X57964285Y-147107142D01*
%TO.C,R9*%
X68833333Y-125452380D02*
X68500000Y-124976190D01*
X68261904Y-125452380D02*
X68261904Y-124452380D01*
X68642857Y-124452380D01*
X68738095Y-124500000D01*
X68785714Y-124547619D01*
X68833333Y-124642857D01*
X68833333Y-124785714D01*
X68785714Y-124880952D01*
X68738095Y-124928571D01*
X68642857Y-124976190D01*
X68261904Y-124976190D01*
X69309523Y-125452380D02*
X69500000Y-125452380D01*
X69595238Y-125404761D01*
X69642857Y-125357142D01*
X69738095Y-125214285D01*
X69785714Y-125023809D01*
X69785714Y-124642857D01*
X69738095Y-124547619D01*
X69690476Y-124500000D01*
X69595238Y-124452380D01*
X69404761Y-124452380D01*
X69309523Y-124500000D01*
X69261904Y-124547619D01*
X69214285Y-124642857D01*
X69214285Y-124880952D01*
X69261904Y-124976190D01*
X69309523Y-125023809D01*
X69404761Y-125071428D01*
X69595238Y-125071428D01*
X69690476Y-125023809D01*
X69738095Y-124976190D01*
X69785714Y-124880952D01*
%TO.C,R2*%
X36583333Y-87202380D02*
X36250000Y-86726190D01*
X36011904Y-87202380D02*
X36011904Y-86202380D01*
X36392857Y-86202380D01*
X36488095Y-86250000D01*
X36535714Y-86297619D01*
X36583333Y-86392857D01*
X36583333Y-86535714D01*
X36535714Y-86630952D01*
X36488095Y-86678571D01*
X36392857Y-86726190D01*
X36011904Y-86726190D01*
X36964285Y-86297619D02*
X37011904Y-86250000D01*
X37107142Y-86202380D01*
X37345238Y-86202380D01*
X37440476Y-86250000D01*
X37488095Y-86297619D01*
X37535714Y-86392857D01*
X37535714Y-86488095D01*
X37488095Y-86630952D01*
X36916666Y-87202380D01*
X37535714Y-87202380D01*
%TO.C,R5*%
X40143333Y-147202380D02*
X39810000Y-146726190D01*
X39571904Y-147202380D02*
X39571904Y-146202380D01*
X39952857Y-146202380D01*
X40048095Y-146250000D01*
X40095714Y-146297619D01*
X40143333Y-146392857D01*
X40143333Y-146535714D01*
X40095714Y-146630952D01*
X40048095Y-146678571D01*
X39952857Y-146726190D01*
X39571904Y-146726190D01*
X41048095Y-146202380D02*
X40571904Y-146202380D01*
X40524285Y-146678571D01*
X40571904Y-146630952D01*
X40667142Y-146583333D01*
X40905238Y-146583333D01*
X41000476Y-146630952D01*
X41048095Y-146678571D01*
X41095714Y-146773809D01*
X41095714Y-147011904D01*
X41048095Y-147107142D01*
X41000476Y-147154761D01*
X40905238Y-147202380D01*
X40667142Y-147202380D01*
X40571904Y-147154761D01*
X40524285Y-147107142D01*
%TO.C,D1*%
X60511904Y-77282380D02*
X60511904Y-76282380D01*
X60750000Y-76282380D01*
X60892857Y-76330000D01*
X60988095Y-76425238D01*
X61035714Y-76520476D01*
X61083333Y-76710952D01*
X61083333Y-76853809D01*
X61035714Y-77044285D01*
X60988095Y-77139523D01*
X60892857Y-77234761D01*
X60750000Y-77282380D01*
X60511904Y-77282380D01*
X62035714Y-77282380D02*
X61464285Y-77282380D01*
X61750000Y-77282380D02*
X61750000Y-76282380D01*
X61654761Y-76425238D01*
X61559523Y-76520476D01*
X61464285Y-76568095D01*
%TO.C,U1*%
X55338095Y-117852380D02*
X55338095Y-118661904D01*
X55385714Y-118757142D01*
X55433333Y-118804761D01*
X55528571Y-118852380D01*
X55719047Y-118852380D01*
X55814285Y-118804761D01*
X55861904Y-118757142D01*
X55909523Y-118661904D01*
X55909523Y-117852380D01*
X56909523Y-118852380D02*
X56338095Y-118852380D01*
X56623809Y-118852380D02*
X56623809Y-117852380D01*
X56528571Y-117995238D01*
X56433333Y-118090476D01*
X56338095Y-118138095D01*
%TO.C,R7*%
X56083333Y-132452380D02*
X55750000Y-131976190D01*
X55511904Y-132452380D02*
X55511904Y-131452380D01*
X55892857Y-131452380D01*
X55988095Y-131500000D01*
X56035714Y-131547619D01*
X56083333Y-131642857D01*
X56083333Y-131785714D01*
X56035714Y-131880952D01*
X55988095Y-131928571D01*
X55892857Y-131976190D01*
X55511904Y-131976190D01*
X56416666Y-131452380D02*
X57083333Y-131452380D01*
X56654761Y-132452380D01*
%TO.C,C3*%
X65583333Y-107557142D02*
X65535714Y-107604761D01*
X65392857Y-107652380D01*
X65297619Y-107652380D01*
X65154761Y-107604761D01*
X65059523Y-107509523D01*
X65011904Y-107414285D01*
X64964285Y-107223809D01*
X64964285Y-107080952D01*
X65011904Y-106890476D01*
X65059523Y-106795238D01*
X65154761Y-106700000D01*
X65297619Y-106652380D01*
X65392857Y-106652380D01*
X65535714Y-106700000D01*
X65583333Y-106747619D01*
X65916666Y-106652380D02*
X66535714Y-106652380D01*
X66202380Y-107033333D01*
X66345238Y-107033333D01*
X66440476Y-107080952D01*
X66488095Y-107128571D01*
X66535714Y-107223809D01*
X66535714Y-107461904D01*
X66488095Y-107557142D01*
X66440476Y-107604761D01*
X66345238Y-107652380D01*
X66059523Y-107652380D01*
X65964285Y-107604761D01*
X65916666Y-107557142D01*
%TO.C,JP1*%
X48266666Y-58352380D02*
X48266666Y-59066666D01*
X48219047Y-59209523D01*
X48123809Y-59304761D01*
X47980952Y-59352380D01*
X47885714Y-59352380D01*
X48742857Y-59352380D02*
X48742857Y-58352380D01*
X49123809Y-58352380D01*
X49219047Y-58400000D01*
X49266666Y-58447619D01*
X49314285Y-58542857D01*
X49314285Y-58685714D01*
X49266666Y-58780952D01*
X49219047Y-58828571D01*
X49123809Y-58876190D01*
X48742857Y-58876190D01*
X50266666Y-59352380D02*
X49695238Y-59352380D01*
X49980952Y-59352380D02*
X49980952Y-58352380D01*
X49885714Y-58495238D01*
X49790476Y-58590476D01*
X49695238Y-58638095D01*
%TO.C,R8*%
X65083333Y-125452380D02*
X64750000Y-124976190D01*
X64511904Y-125452380D02*
X64511904Y-124452380D01*
X64892857Y-124452380D01*
X64988095Y-124500000D01*
X65035714Y-124547619D01*
X65083333Y-124642857D01*
X65083333Y-124785714D01*
X65035714Y-124880952D01*
X64988095Y-124928571D01*
X64892857Y-124976190D01*
X64511904Y-124976190D01*
X65654761Y-124880952D02*
X65559523Y-124833333D01*
X65511904Y-124785714D01*
X65464285Y-124690476D01*
X65464285Y-124642857D01*
X65511904Y-124547619D01*
X65559523Y-124500000D01*
X65654761Y-124452380D01*
X65845238Y-124452380D01*
X65940476Y-124500000D01*
X65988095Y-124547619D01*
X66035714Y-124642857D01*
X66035714Y-124690476D01*
X65988095Y-124785714D01*
X65940476Y-124833333D01*
X65845238Y-124880952D01*
X65654761Y-124880952D01*
X65559523Y-124928571D01*
X65511904Y-124976190D01*
X65464285Y-125071428D01*
X65464285Y-125261904D01*
X65511904Y-125357142D01*
X65559523Y-125404761D01*
X65654761Y-125452380D01*
X65845238Y-125452380D01*
X65940476Y-125404761D01*
X65988095Y-125357142D01*
X66035714Y-125261904D01*
X66035714Y-125071428D01*
X65988095Y-124976190D01*
X65940476Y-124928571D01*
X65845238Y-124880952D01*
%TO.C,C6*%
X49333333Y-147107142D02*
X49285714Y-147154761D01*
X49142857Y-147202380D01*
X49047619Y-147202380D01*
X48904761Y-147154761D01*
X48809523Y-147059523D01*
X48761904Y-146964285D01*
X48714285Y-146773809D01*
X48714285Y-146630952D01*
X48761904Y-146440476D01*
X48809523Y-146345238D01*
X48904761Y-146250000D01*
X49047619Y-146202380D01*
X49142857Y-146202380D01*
X49285714Y-146250000D01*
X49333333Y-146297619D01*
X50190476Y-146202380D02*
X50000000Y-146202380D01*
X49904761Y-146250000D01*
X49857142Y-146297619D01*
X49761904Y-146440476D01*
X49714285Y-146630952D01*
X49714285Y-147011904D01*
X49761904Y-147107142D01*
X49809523Y-147154761D01*
X49904761Y-147202380D01*
X50095238Y-147202380D01*
X50190476Y-147154761D01*
X50238095Y-147107142D01*
X50285714Y-147011904D01*
X50285714Y-146773809D01*
X50238095Y-146678571D01*
X50190476Y-146630952D01*
X50095238Y-146583333D01*
X49904761Y-146583333D01*
X49809523Y-146630952D01*
X49761904Y-146678571D01*
X49714285Y-146773809D01*
%TO.C,R4*%
X36583333Y-126702380D02*
X36250000Y-126226190D01*
X36011904Y-126702380D02*
X36011904Y-125702380D01*
X36392857Y-125702380D01*
X36488095Y-125750000D01*
X36535714Y-125797619D01*
X36583333Y-125892857D01*
X36583333Y-126035714D01*
X36535714Y-126130952D01*
X36488095Y-126178571D01*
X36392857Y-126226190D01*
X36011904Y-126226190D01*
X37440476Y-126035714D02*
X37440476Y-126702380D01*
X37202380Y-125654761D02*
X36964285Y-126369047D01*
X37583333Y-126369047D01*
%TO.C,C4*%
X46533333Y-108657142D02*
X46485714Y-108704761D01*
X46342857Y-108752380D01*
X46247619Y-108752380D01*
X46104761Y-108704761D01*
X46009523Y-108609523D01*
X45961904Y-108514285D01*
X45914285Y-108323809D01*
X45914285Y-108180952D01*
X45961904Y-107990476D01*
X46009523Y-107895238D01*
X46104761Y-107800000D01*
X46247619Y-107752380D01*
X46342857Y-107752380D01*
X46485714Y-107800000D01*
X46533333Y-107847619D01*
X47390476Y-108085714D02*
X47390476Y-108752380D01*
X47152380Y-107704761D02*
X46914285Y-108419047D01*
X47533333Y-108419047D01*
%TO.C,R3*%
X36583333Y-106952380D02*
X36250000Y-106476190D01*
X36011904Y-106952380D02*
X36011904Y-105952380D01*
X36392857Y-105952380D01*
X36488095Y-106000000D01*
X36535714Y-106047619D01*
X36583333Y-106142857D01*
X36583333Y-106285714D01*
X36535714Y-106380952D01*
X36488095Y-106428571D01*
X36392857Y-106476190D01*
X36011904Y-106476190D01*
X36916666Y-105952380D02*
X37535714Y-105952380D01*
X37202380Y-106333333D01*
X37345238Y-106333333D01*
X37440476Y-106380952D01*
X37488095Y-106428571D01*
X37535714Y-106523809D01*
X37535714Y-106761904D01*
X37488095Y-106857142D01*
X37440476Y-106904761D01*
X37345238Y-106952380D01*
X37059523Y-106952380D01*
X36964285Y-106904761D01*
X36916666Y-106857142D01*
%TO.C,C2*%
X57083333Y-84857142D02*
X57035714Y-84904761D01*
X56892857Y-84952380D01*
X56797619Y-84952380D01*
X56654761Y-84904761D01*
X56559523Y-84809523D01*
X56511904Y-84714285D01*
X56464285Y-84523809D01*
X56464285Y-84380952D01*
X56511904Y-84190476D01*
X56559523Y-84095238D01*
X56654761Y-84000000D01*
X56797619Y-83952380D01*
X56892857Y-83952380D01*
X57035714Y-84000000D01*
X57083333Y-84047619D01*
X57464285Y-84047619D02*
X57511904Y-84000000D01*
X57607142Y-83952380D01*
X57845238Y-83952380D01*
X57940476Y-84000000D01*
X57988095Y-84047619D01*
X58035714Y-84142857D01*
X58035714Y-84238095D01*
X57988095Y-84380952D01*
X57416666Y-84952380D01*
X58035714Y-84952380D01*
D11*
%TO.C,R6*%
X47380000Y-132230000D02*
X47710000Y-132230000D01*
X50120000Y-132230000D02*
X49790000Y-132230000D01*
X50120000Y-138770000D02*
X50120000Y-132230000D01*
X47710000Y-138770000D02*
X47380000Y-138770000D01*
X47380000Y-138770000D02*
X47380000Y-132230000D01*
X49790000Y-138770000D02*
X50120000Y-138770000D01*
%TO.C,D2*%
X51720000Y-75140000D02*
X48780000Y-75140000D01*
X48780000Y-79800000D02*
X51720000Y-79800000D01*
X51720000Y-79800000D02*
X51720000Y-74360000D01*
X51720000Y-75260000D02*
X48780000Y-75260000D01*
X50250000Y-73340000D02*
X50250000Y-74360000D01*
X48780000Y-74360000D02*
X48780000Y-79800000D01*
X51720000Y-74360000D02*
X48780000Y-74360000D01*
X50250000Y-80820000D02*
X50250000Y-79800000D01*
X51720000Y-75380000D02*
X48780000Y-75380000D01*
%TO.C,U2*%
X55235000Y-134370000D02*
X53985000Y-134370000D01*
X58485000Y-144650000D02*
X58485000Y-134370000D01*
X53985000Y-134370000D02*
X53985000Y-144650000D01*
X58485000Y-134370000D02*
X57235000Y-134370000D01*
X53985000Y-144650000D02*
X58485000Y-144650000D01*
X55235000Y-134370000D02*
G75*
G03*
X57235000Y-134370000I1000000J0D01*
G01*
%TO.C,C1*%
X53922000Y-74085113D02*
X59078000Y-74085113D01*
X53989000Y-73605113D02*
X55460000Y-73605113D01*
X57540000Y-72044113D02*
X57943000Y-72044113D01*
X57540000Y-73685113D02*
X59028000Y-73685113D01*
X57540000Y-72804113D02*
X58675000Y-72804113D01*
X54190000Y-73044113D02*
X55460000Y-73044113D01*
X57540000Y-72644113D02*
X58565000Y-72644113D01*
X54563000Y-72484113D02*
X55460000Y-72484113D01*
X55585000Y-71764113D02*
X57415000Y-71764113D01*
X57540000Y-72884113D02*
X58724000Y-72884113D01*
X54801000Y-72244113D02*
X55460000Y-72244113D01*
X57540000Y-73765113D02*
X59043000Y-73765113D01*
X53935000Y-73925113D02*
X55460000Y-73925113D01*
X57540000Y-72204113D02*
X58153000Y-72204113D01*
X57540000Y-73284113D02*
X58914000Y-73284113D01*
X54276000Y-72884113D02*
X55460000Y-72884113D01*
X53924000Y-74045113D02*
X59076000Y-74045113D01*
X55000000Y-72084113D02*
X55460000Y-72084113D01*
X55695000Y-71724113D02*
X57305000Y-71724113D01*
X54351000Y-72764113D02*
X55460000Y-72764113D01*
X53972000Y-73685113D02*
X55460000Y-73685113D01*
X57540000Y-73244113D02*
X58898000Y-73244113D01*
X54135000Y-73164113D02*
X55460000Y-73164113D01*
X57540000Y-73845113D02*
X59056000Y-73845113D01*
X57540000Y-73444113D02*
X58968000Y-73444113D01*
X57540000Y-73805113D02*
X59050000Y-73805113D01*
X57540000Y-72684113D02*
X58595000Y-72684113D01*
X57540000Y-73084113D02*
X58829000Y-73084113D01*
X54325000Y-72804113D02*
X55460000Y-72804113D01*
X57540000Y-73124113D02*
X58848000Y-73124113D01*
X54045000Y-73404113D02*
X55460000Y-73404113D01*
X57540000Y-73364113D02*
X58942000Y-73364113D01*
X57540000Y-73605113D02*
X59011000Y-73605113D01*
X57540000Y-72724113D02*
X58622000Y-72724113D01*
X57540000Y-73204113D02*
X58882000Y-73204113D01*
X55057000Y-72044113D02*
X55460000Y-72044113D01*
X57540000Y-73925113D02*
X59065000Y-73925113D01*
X57540000Y-72524113D02*
X58471000Y-72524113D01*
X57540000Y-71964113D02*
X57819000Y-71964113D01*
X54847000Y-72204113D02*
X55460000Y-72204113D01*
X57540000Y-73404113D02*
X58955000Y-73404113D01*
X57540000Y-72924113D02*
X58747000Y-72924113D01*
X55249000Y-71924113D02*
X55460000Y-71924113D01*
X53999000Y-73565113D02*
X55460000Y-73565113D01*
X54895000Y-72164113D02*
X55460000Y-72164113D01*
X55025000Y-77009888D02*
X55025000Y-76509888D01*
X55489000Y-71804113D02*
X57511000Y-71804113D01*
X54102000Y-73244113D02*
X55460000Y-73244113D01*
X57540000Y-72844113D02*
X58700000Y-72844113D01*
X54020000Y-73484113D02*
X55460000Y-73484113D01*
X54086000Y-73284113D02*
X55460000Y-73284113D01*
X57540000Y-73004113D02*
X58790000Y-73004113D01*
X54775000Y-76759888D02*
X55275000Y-76759888D01*
X57540000Y-72324113D02*
X58285000Y-72324113D01*
X53957000Y-73765113D02*
X55460000Y-73765113D01*
X57540000Y-72244113D02*
X58199000Y-72244113D01*
X53964000Y-73725113D02*
X55460000Y-73725113D01*
X57540000Y-72004113D02*
X57883000Y-72004113D01*
X57540000Y-73565113D02*
X59001000Y-73565113D01*
X54253000Y-72924113D02*
X55460000Y-72924113D01*
X56216000Y-71604113D02*
X56784000Y-71604113D01*
X54757000Y-72284113D02*
X55460000Y-72284113D01*
X54152000Y-73124113D02*
X55460000Y-73124113D01*
X54058000Y-73364113D02*
X55460000Y-73364113D01*
X57540000Y-72284113D02*
X58243000Y-72284113D01*
X57540000Y-73525113D02*
X58991000Y-73525113D01*
X55982000Y-71644113D02*
X57018000Y-71644113D01*
X57540000Y-73725113D02*
X59036000Y-73725113D01*
X54946000Y-72124113D02*
X55460000Y-72124113D01*
X57540000Y-73965113D02*
X59069000Y-73965113D01*
X53980000Y-73645113D02*
X55460000Y-73645113D01*
X54405000Y-72684113D02*
X55460000Y-72684113D01*
X57540000Y-72564113D02*
X58504000Y-72564113D01*
X53944000Y-73845113D02*
X55460000Y-73845113D01*
X54072000Y-73324113D02*
X55460000Y-73324113D01*
X54599000Y-72444113D02*
X55460000Y-72444113D01*
X54529000Y-72524113D02*
X55460000Y-72524113D01*
X53939000Y-73885113D02*
X55460000Y-73885113D01*
X57540000Y-73484113D02*
X58980000Y-73484113D01*
X55322000Y-71884113D02*
X57678000Y-71884113D01*
X55181000Y-71964113D02*
X55460000Y-71964113D01*
X55823000Y-71684113D02*
X57177000Y-71684113D01*
X57540000Y-72124113D02*
X58054000Y-72124113D01*
X53920000Y-74165113D02*
X59080000Y-74165113D01*
X57540000Y-72084113D02*
X58000000Y-72084113D01*
X57540000Y-72444113D02*
X58401000Y-72444113D01*
X53950000Y-73805113D02*
X55460000Y-73805113D01*
X53927000Y-74005113D02*
X59073000Y-74005113D01*
X54032000Y-73444113D02*
X55460000Y-73444113D01*
X55117000Y-72004113D02*
X55460000Y-72004113D01*
X57540000Y-73324113D02*
X58928000Y-73324113D01*
X57540000Y-72604113D02*
X58535000Y-72604113D01*
X57540000Y-72164113D02*
X58105000Y-72164113D01*
X54674000Y-72364113D02*
X55460000Y-72364113D01*
X53931000Y-73965113D02*
X55460000Y-73965113D01*
X54465000Y-72604113D02*
X55460000Y-72604113D01*
X57540000Y-72484113D02*
X58437000Y-72484113D01*
X53921000Y-74125113D02*
X59079000Y-74125113D01*
X54636000Y-72404113D02*
X55460000Y-72404113D01*
X57540000Y-73885113D02*
X59061000Y-73885113D01*
X57540000Y-72964113D02*
X58768000Y-72964113D01*
X54232000Y-72964113D02*
X55460000Y-72964113D01*
X54210000Y-73004113D02*
X55460000Y-73004113D01*
X57540000Y-71924113D02*
X57751000Y-71924113D01*
X57540000Y-72404113D02*
X58364000Y-72404113D01*
X57540000Y-73645113D02*
X59020000Y-73645113D01*
X57540000Y-72364113D02*
X58326000Y-72364113D01*
X54715000Y-72324113D02*
X55460000Y-72324113D01*
X55402000Y-71844113D02*
X57598000Y-71844113D01*
X57540000Y-73044113D02*
X58810000Y-73044113D01*
X54300000Y-72844113D02*
X55460000Y-72844113D01*
X57540000Y-73164113D02*
X58865000Y-73164113D01*
X54009000Y-73525113D02*
X55460000Y-73525113D01*
X54171000Y-73084113D02*
X55460000Y-73084113D01*
X54496000Y-72564113D02*
X55460000Y-72564113D01*
X54378000Y-72724113D02*
X55460000Y-72724113D01*
X57540000Y-72764113D02*
X58649000Y-72764113D01*
X53920000Y-74205113D02*
X59080000Y-74205113D01*
X54435000Y-72644113D02*
X55460000Y-72644113D01*
X54118000Y-73204113D02*
X55460000Y-73204113D01*
X59120000Y-74205113D02*
G75*
G03*
X59120000Y-74205113I-2620000J0D01*
G01*
%TO.C,R1*%
X40020000Y-65380000D02*
X33480000Y-65380000D01*
X40020000Y-68120000D02*
X33480000Y-68120000D01*
X40020000Y-65710000D02*
X40020000Y-65380000D01*
X40020000Y-67790000D02*
X40020000Y-68120000D01*
X33480000Y-65380000D02*
X33480000Y-65710000D01*
X33480000Y-68120000D02*
X33480000Y-67790000D01*
%TO.C,C5*%
X54130000Y-148120000D02*
X61370000Y-148120000D01*
X54130000Y-145380000D02*
X54130000Y-148120000D01*
X54130000Y-145380000D02*
X61370000Y-145380000D01*
X61370000Y-145380000D02*
X61370000Y-148120000D01*
%TO.C,R9*%
X67630000Y-121730000D02*
X67630000Y-128270000D01*
X67960000Y-121730000D02*
X67630000Y-121730000D01*
X70370000Y-121730000D02*
X70370000Y-128270000D01*
X67630000Y-128270000D02*
X67960000Y-128270000D01*
X70370000Y-128270000D02*
X70040000Y-128270000D01*
X70040000Y-121730000D02*
X70370000Y-121730000D01*
%TO.C,R2*%
X40020000Y-88120000D02*
X33480000Y-88120000D01*
X33480000Y-85380000D02*
X33480000Y-85710000D01*
X33480000Y-88120000D02*
X33480000Y-87790000D01*
X40020000Y-87790000D02*
X40020000Y-88120000D01*
X40020000Y-85380000D02*
X33480000Y-85380000D01*
X40020000Y-85710000D02*
X40020000Y-85380000D01*
%TO.C,R5*%
X37040000Y-147790000D02*
X37040000Y-148120000D01*
X37040000Y-145710000D02*
X37040000Y-145380000D01*
X37040000Y-145380000D02*
X43580000Y-145380000D01*
X43580000Y-145380000D02*
X43580000Y-145710000D01*
X37040000Y-148120000D02*
X43580000Y-148120000D01*
X43580000Y-148120000D02*
X43580000Y-147790000D01*
%TO.C,D1*%
X61250000Y-73260000D02*
X61250000Y-74280000D01*
X59780000Y-78700000D02*
X62720000Y-78700000D01*
X62720000Y-74280000D02*
X59780000Y-74280000D01*
X61250000Y-80740000D02*
X61250000Y-79720000D01*
X59780000Y-78940000D02*
X62720000Y-78940000D01*
X59780000Y-79720000D02*
X62720000Y-79720000D01*
X59780000Y-78820000D02*
X62720000Y-78820000D01*
X59780000Y-74280000D02*
X59780000Y-79720000D01*
X62720000Y-79720000D02*
X62720000Y-74280000D01*
%TO.C,U1*%
X58265000Y-102555000D02*
X53765000Y-102555000D01*
X57015000Y-120455000D02*
X58265000Y-120455000D01*
X58265000Y-120455000D02*
X58265000Y-102555000D01*
X53765000Y-120455000D02*
X55015000Y-120455000D01*
X53765000Y-102555000D02*
X53765000Y-120455000D01*
X57015000Y-120455000D02*
G75*
G03*
X55015000Y-120455000I-1000000J0D01*
G01*
%TO.C,R7*%
X52980000Y-130630000D02*
X59520000Y-130630000D01*
X52980000Y-133370000D02*
X59520000Y-133370000D01*
X59520000Y-133370000D02*
X59520000Y-133040000D01*
X59520000Y-130630000D02*
X59520000Y-130960000D01*
X52980000Y-133040000D02*
X52980000Y-133370000D01*
X52980000Y-130960000D02*
X52980000Y-130630000D01*
%TO.C,C3*%
X69370000Y-105880000D02*
X69370000Y-108620000D01*
X62130000Y-105880000D02*
X62130000Y-108620000D01*
X62130000Y-105880000D02*
X69370000Y-105880000D01*
X62130000Y-108620000D02*
X69370000Y-108620000D01*
%TO.C,JP1*%
X67240000Y-61482500D02*
X67240000Y-67982500D01*
X47960000Y-69292500D02*
X47960000Y-60172500D01*
X68540000Y-69292500D02*
X47960000Y-69292500D01*
X56200000Y-67982500D02*
X49260000Y-67982500D01*
X49260000Y-61482500D02*
X67240000Y-61482500D01*
X53170000Y-69682500D02*
X52670000Y-70682500D01*
X60300000Y-67982500D02*
X60300000Y-67982500D01*
X47960000Y-60172500D02*
X68540000Y-60172500D01*
X49260000Y-67982500D02*
X49260000Y-61482500D01*
X67240000Y-67982500D02*
X60300000Y-67982500D01*
X68540000Y-60172500D02*
X68540000Y-69292500D01*
X52670000Y-70682500D02*
X53670000Y-70682500D01*
X56200000Y-69292500D02*
X56200000Y-67982500D01*
X53670000Y-70682500D02*
X53170000Y-69682500D01*
X60300000Y-67982500D02*
X60300000Y-69292500D01*
%TO.C,R8*%
X63880000Y-128270000D02*
X64210000Y-128270000D01*
X66620000Y-121730000D02*
X66620000Y-128270000D01*
X64210000Y-121730000D02*
X63880000Y-121730000D01*
X66290000Y-121730000D02*
X66620000Y-121730000D01*
X66620000Y-128270000D02*
X66290000Y-128270000D01*
X63880000Y-121730000D02*
X63880000Y-128270000D01*
%TO.C,C6*%
X45880000Y-145380000D02*
X53120000Y-145380000D01*
X45880000Y-145380000D02*
X45880000Y-148120000D01*
X45880000Y-148120000D02*
X53120000Y-148120000D01*
X53120000Y-145380000D02*
X53120000Y-148120000D01*
%TO.C,R4*%
X40020000Y-127290000D02*
X40020000Y-127620000D01*
X33480000Y-127620000D02*
X33480000Y-127290000D01*
X33480000Y-124880000D02*
X33480000Y-125210000D01*
X40020000Y-127620000D02*
X33480000Y-127620000D01*
X40020000Y-125210000D02*
X40020000Y-124880000D01*
X40020000Y-124880000D02*
X33480000Y-124880000D01*
%TO.C,C4*%
X42880000Y-106880000D02*
X42880000Y-109620000D01*
X50120000Y-106880000D02*
X50120000Y-109620000D01*
X42880000Y-106880000D02*
X50120000Y-106880000D01*
X42880000Y-109620000D02*
X50120000Y-109620000D01*
%TO.C,R3*%
X40020000Y-107540000D02*
X40020000Y-107870000D01*
X40020000Y-107870000D02*
X33480000Y-107870000D01*
X33480000Y-107870000D02*
X33480000Y-107540000D01*
X40020000Y-105130000D02*
X33480000Y-105130000D01*
X40020000Y-105460000D02*
X40020000Y-105130000D01*
X33480000Y-105130000D02*
X33480000Y-105460000D01*
%TO.C,C2*%
X56305000Y-83525887D02*
X54695000Y-83525887D01*
X58043000Y-81484887D02*
X56540000Y-81484887D01*
X54460000Y-82805887D02*
X53599000Y-82805887D01*
X58079000Y-81124887D02*
X52921000Y-81124887D01*
X56678000Y-83365887D02*
X54322000Y-83365887D01*
X57535000Y-82645887D02*
X56540000Y-82645887D01*
X57914000Y-81965887D02*
X56540000Y-81965887D01*
X57437000Y-82765887D02*
X56540000Y-82765887D01*
X54460000Y-81404887D02*
X52944000Y-81404887D01*
X54460000Y-81765887D02*
X53020000Y-81765887D01*
X54460000Y-81925887D02*
X53072000Y-81925887D01*
X56819000Y-83285887D02*
X56540000Y-83285887D01*
X58073000Y-81244887D02*
X52927000Y-81244887D01*
X57471000Y-82725887D02*
X56540000Y-82725887D01*
X57829000Y-82165887D02*
X56540000Y-82165887D01*
X54460000Y-82405887D02*
X53300000Y-82405887D01*
X57364000Y-82845887D02*
X56540000Y-82845887D01*
X54460000Y-82965887D02*
X53757000Y-82965887D01*
X54460000Y-82925887D02*
X53715000Y-82925887D01*
X57326000Y-82885887D02*
X56540000Y-82885887D01*
X57700000Y-82405887D02*
X56540000Y-82405887D01*
X54460000Y-81805887D02*
X53032000Y-81805887D01*
X57622000Y-82525887D02*
X56540000Y-82525887D01*
X58080000Y-81044887D02*
X52920000Y-81044887D01*
X58028000Y-81564887D02*
X56540000Y-81564887D01*
X57675000Y-82445887D02*
X56540000Y-82445887D01*
X54460000Y-83085887D02*
X53895000Y-83085887D01*
X54460000Y-82565887D02*
X53405000Y-82565887D01*
X54460000Y-83325887D02*
X54249000Y-83325887D01*
X54460000Y-83165887D02*
X54000000Y-83165887D01*
X58020000Y-81604887D02*
X56540000Y-81604887D01*
X54460000Y-83285887D02*
X54181000Y-83285887D01*
X57401000Y-82805887D02*
X56540000Y-82805887D01*
X56943000Y-83205887D02*
X56540000Y-83205887D01*
X54460000Y-81484887D02*
X52957000Y-81484887D01*
X57848000Y-82125887D02*
X56540000Y-82125887D01*
X54460000Y-81885887D02*
X53058000Y-81885887D01*
X54460000Y-82485887D02*
X53351000Y-82485887D01*
X54460000Y-82725887D02*
X53529000Y-82725887D01*
X54460000Y-81644887D02*
X52989000Y-81644887D01*
X54460000Y-81965887D02*
X53086000Y-81965887D01*
X54460000Y-82445887D02*
X53325000Y-82445887D01*
X54460000Y-83045887D02*
X53847000Y-83045887D01*
X57225000Y-78490112D02*
X56725000Y-78490112D01*
X56511000Y-83445887D02*
X54489000Y-83445887D01*
X54460000Y-82125887D02*
X53152000Y-82125887D01*
X54460000Y-82005887D02*
X53102000Y-82005887D01*
X58036000Y-81524887D02*
X56540000Y-81524887D01*
X54460000Y-82605887D02*
X53435000Y-82605887D01*
X57285000Y-82925887D02*
X56540000Y-82925887D01*
X57768000Y-82285887D02*
X56540000Y-82285887D01*
X54460000Y-81564887D02*
X52972000Y-81564887D01*
X56177000Y-83565887D02*
X54823000Y-83565887D01*
X57649000Y-82485887D02*
X56540000Y-82485887D01*
X54460000Y-82045887D02*
X53118000Y-82045887D01*
X54460000Y-82325887D02*
X53253000Y-82325887D01*
X54460000Y-81524887D02*
X52964000Y-81524887D01*
X57199000Y-83005887D02*
X56540000Y-83005887D01*
X54460000Y-81845887D02*
X53045000Y-81845887D01*
X58078000Y-81164887D02*
X52922000Y-81164887D01*
X57980000Y-81765887D02*
X56540000Y-81765887D01*
X56751000Y-83325887D02*
X56540000Y-83325887D01*
X54460000Y-83005887D02*
X53801000Y-83005887D01*
X58080000Y-81084887D02*
X52920000Y-81084887D01*
X57747000Y-82325887D02*
X56540000Y-82325887D01*
X54460000Y-82765887D02*
X53563000Y-82765887D01*
X57105000Y-83085887D02*
X56540000Y-83085887D01*
X54460000Y-82525887D02*
X53378000Y-82525887D01*
X54460000Y-81284887D02*
X52931000Y-81284887D01*
X57955000Y-81845887D02*
X56540000Y-81845887D01*
X54460000Y-82645887D02*
X53465000Y-82645887D01*
X54460000Y-82885887D02*
X53674000Y-82885887D01*
X58061000Y-81364887D02*
X56540000Y-81364887D01*
X57865000Y-82085887D02*
X56540000Y-82085887D01*
X57968000Y-81805887D02*
X56540000Y-81805887D01*
X58069000Y-81284887D02*
X56540000Y-81284887D01*
X57504000Y-82685887D02*
X56540000Y-82685887D01*
X54460000Y-81364887D02*
X52939000Y-81364887D01*
X54460000Y-82845887D02*
X53636000Y-82845887D01*
X57054000Y-83125887D02*
X56540000Y-83125887D01*
X54460000Y-82365887D02*
X53276000Y-82365887D01*
X54460000Y-82685887D02*
X53496000Y-82685887D01*
X57928000Y-81925887D02*
X56540000Y-81925887D01*
X58056000Y-81404887D02*
X56540000Y-81404887D01*
X54460000Y-81604887D02*
X52980000Y-81604887D01*
X56975000Y-78240112D02*
X56975000Y-78740112D01*
X54460000Y-82205887D02*
X53190000Y-82205887D01*
X56018000Y-83605887D02*
X54982000Y-83605887D01*
X58076000Y-81204887D02*
X52924000Y-81204887D01*
X54460000Y-83245887D02*
X54117000Y-83245887D01*
X58011000Y-81644887D02*
X56540000Y-81644887D01*
X55784000Y-83645887D02*
X55216000Y-83645887D01*
X58001000Y-81684887D02*
X56540000Y-81684887D01*
X58050000Y-81444887D02*
X56540000Y-81444887D01*
X57243000Y-82965887D02*
X56540000Y-82965887D01*
X57942000Y-81885887D02*
X56540000Y-81885887D01*
X57153000Y-83045887D02*
X56540000Y-83045887D01*
X54460000Y-83205887D02*
X54057000Y-83205887D01*
X57898000Y-82005887D02*
X56540000Y-82005887D01*
X57000000Y-83165887D02*
X56540000Y-83165887D01*
X57595000Y-82565887D02*
X56540000Y-82565887D01*
X56598000Y-83405887D02*
X54402000Y-83405887D01*
X54460000Y-82085887D02*
X53135000Y-82085887D01*
X54460000Y-83125887D02*
X53946000Y-83125887D01*
X57810000Y-82205887D02*
X56540000Y-82205887D01*
X57882000Y-82045887D02*
X56540000Y-82045887D01*
X57565000Y-82605887D02*
X56540000Y-82605887D01*
X54460000Y-82285887D02*
X53232000Y-82285887D01*
X58065000Y-81324887D02*
X56540000Y-81324887D01*
X54460000Y-81444887D02*
X52950000Y-81444887D01*
X57724000Y-82365887D02*
X56540000Y-82365887D01*
X54460000Y-82165887D02*
X53171000Y-82165887D01*
X56415000Y-83485887D02*
X54585000Y-83485887D01*
X57991000Y-81724887D02*
X56540000Y-81724887D01*
X54460000Y-81684887D02*
X52999000Y-81684887D01*
X54460000Y-82245887D02*
X53210000Y-82245887D01*
X54460000Y-81724887D02*
X53009000Y-81724887D01*
X54460000Y-81324887D02*
X52935000Y-81324887D01*
X56883000Y-83245887D02*
X56540000Y-83245887D01*
X57790000Y-82245887D02*
X56540000Y-82245887D01*
X58120000Y-81044887D02*
G75*
G03*
X58120000Y-81044887I-2620000J0D01*
G01*
%TD*%
M02*
