M48
; DRILL file {KiCad (6.0.2)} date Wed Apr 27 22:08:40 2022
; FORMAT={-:-/ absolute / metric / decimal}
; #@! TF.CreationDate,2022-04-27T22:08:40+02:00
; #@! TF.GenerationSoftware,Kicad,Pcbnew,(6.0.2)
; #@! TF.FileFunction,Plated,1,2,PTH
FMAT,2
METRIC
; #@! TA.AperFunction,Plated,PTH,ViaDrill
T1C0.400
; #@! TA.AperFunction,Plated,PTH,ComponentDrill
T2C0.700
; #@! TA.AperFunction,Plated,PTH,ComponentDrill
T3C0.800
; #@! TA.AperFunction,Plated,PTH,ComponentDrill
T4C1.000
; #@! TA.AperFunction,Plated,PTH,ComponentDrill
T5C1.100
; #@! TA.AperFunction,Plated,PTH,ComponentDrill
T6C3.000
%
G90
G05
T1
X35.75Y-88.25
X47.5Y-104.0
X48.5Y-91.75
X49.0Y-128.0
X52.25Y-126.25
X54.25Y-88.25
X54.75Y-128.0
X55.5Y-91.75
X56.25Y-123.25
X56.25Y-135.75
X57.25Y-85.75
X59.75Y-86.75
X60.0Y-121.75
T3
X32.94Y-66.75
X32.94Y-86.75
X32.94Y-106.5
X32.94Y-126.25
X36.5Y-146.75
X40.56Y-66.75
X40.56Y-86.75
X40.56Y-106.5
X40.56Y-126.25
X44.0Y-108.25
X44.12Y-146.75
X47.0Y-146.75
X48.75Y-131.69
X48.75Y-139.31
X49.0Y-108.25
X52.0Y-146.75
X52.205Y-103.885
X52.205Y-106.425
X52.205Y-108.965
X52.205Y-111.505
X52.205Y-114.045
X52.205Y-116.585
X52.205Y-119.125
X52.425Y-135.7
X52.425Y-138.24
X52.425Y-140.78
X52.425Y-143.32
X52.44Y-132.0
X55.25Y-146.75
X55.5Y-79.795
X55.5Y-82.295
X56.5Y-72.955
X56.5Y-75.455
X59.825Y-103.885
X59.825Y-106.425
X59.825Y-108.965
X59.825Y-111.505
X59.825Y-114.045
X59.825Y-116.585
X59.825Y-119.125
X60.045Y-135.7
X60.045Y-138.24
X60.045Y-140.78
X60.045Y-143.32
X60.06Y-132.0
X60.25Y-146.75
X63.25Y-107.25
X65.25Y-121.19
X65.25Y-128.81
X68.25Y-107.25
X69.0Y-121.19
X69.0Y-128.81
T4
X37.5Y-62.475
X37.5Y-82.475
X37.5Y-102.475
X37.5Y-122.475
X37.5Y-142.475
X40.0Y-62.475
X40.0Y-82.475
X40.0Y-102.475
X40.0Y-122.475
X40.0Y-142.475
X42.5Y-62.475
X42.5Y-82.475
X42.5Y-102.475
X42.5Y-122.475
X42.5Y-142.475
X53.17Y-63.462
X53.17Y-66.002
X55.71Y-63.462
X55.71Y-66.002
X58.25Y-63.462
X58.25Y-66.002
X60.79Y-63.462
X60.79Y-66.002
X63.33Y-63.462
X63.33Y-66.002
T5
X50.25Y-72.0
X50.25Y-82.16
X61.25Y-71.92
X61.25Y-82.08
T6
X70.0Y-55.0
X70.0Y-75.0
X70.0Y-95.0
X70.0Y-115.0
X70.0Y-135.0
X70.0Y-145.0
T2
X65.08Y-54.3G85X65.08Y-55.7
G05
X65.08Y-74.3G85X65.08Y-75.7
G05
X65.08Y-94.3G85X65.08Y-95.7
G05
X65.08Y-114.3G85X65.08Y-115.7
G05
X65.08Y-134.3G85X65.08Y-135.7
G05
X65.08Y-144.3G85X65.08Y-145.7
G05
X73.38Y-54.3G85X73.38Y-55.7
G05
X73.38Y-74.3G85X73.38Y-75.7
G05
X73.38Y-94.3G85X73.38Y-95.7
G05
X73.38Y-114.3G85X73.38Y-115.7
G05
X73.38Y-134.3G85X73.38Y-135.7
G05
X73.38Y-144.3G85X73.38Y-145.7
G05
X76.0Y-54.3G85X76.0Y-55.7
G05
X76.0Y-74.3G85X76.0Y-75.7
G05
X76.0Y-94.3G85X76.0Y-95.7
G05
X76.0Y-114.3G85X76.0Y-115.7
G05
X76.0Y-134.3G85X76.0Y-135.7
G05
X76.0Y-144.3G85X76.0Y-145.7
G05
T5
X35.2Y-54.625G85X35.2Y-55.325
G05
X35.2Y-74.625G85X35.2Y-75.325
G05
X35.2Y-94.625G85X35.2Y-95.325
G05
X35.2Y-114.625G85X35.2Y-115.325
G05
X35.2Y-134.625G85X35.2Y-135.325
G05
X44.8Y-54.625G85X44.8Y-55.325
G05
X44.8Y-74.625G85X44.8Y-75.325
G05
X44.8Y-94.625G85X44.8Y-95.325
G05
X44.8Y-114.625G85X44.8Y-115.325
G05
X44.8Y-134.625G85X44.8Y-135.325
G05
T0
M30
