%FSLAX45Y45*%
G04 Gerber Fmt 4.5, Leading zero omitted, Abs format (unit mm)*
G04 Created by KiCad (PCBNEW (6.0.2)) date 2022-05-06 20:28:32*
%MOMM*%
%LPD*%
G01*
G04 APERTURE LIST*
%TA.AperFunction,Profile*%
%ADD10C,0.100000*%
%TD*%
%ADD11C,0.200000*%
G04 APERTURE END LIST*
D10*
X10975000Y-3575000D02*
X16025000Y-3575000D01*
X16025000Y-3575000D02*
X16025000Y-16425000D01*
X10975000Y-3575000D02*
X10975000Y-16425000D01*
X10975000Y-16425000D02*
X16025000Y-16425000D01*
D11*
X11227619Y-16740476D02*
X11227619Y-16540476D01*
X11275238Y-16540476D01*
X11303809Y-16550000D01*
X11322857Y-16569048D01*
X11332381Y-16588095D01*
X11341905Y-16626190D01*
X11341905Y-16654762D01*
X11332381Y-16692857D01*
X11322857Y-16711905D01*
X11303809Y-16730952D01*
X11275238Y-16740476D01*
X11227619Y-16740476D01*
X11427619Y-16740476D02*
X11427619Y-16607143D01*
X11427619Y-16645238D02*
X11437143Y-16626190D01*
X11446667Y-16616667D01*
X11465714Y-16607143D01*
X11484762Y-16607143D01*
X11551428Y-16740476D02*
X11551428Y-16607143D01*
X11551428Y-16540476D02*
X11541905Y-16550000D01*
X11551428Y-16559524D01*
X11560952Y-16550000D01*
X11551428Y-16540476D01*
X11551428Y-16559524D01*
X11675238Y-16740476D02*
X11656190Y-16730952D01*
X11646667Y-16711905D01*
X11646667Y-16540476D01*
X11780000Y-16740476D02*
X11760952Y-16730952D01*
X11751428Y-16711905D01*
X11751428Y-16540476D01*
X12008571Y-16740476D02*
X12008571Y-16540476D01*
X12075238Y-16683333D01*
X12141905Y-16540476D01*
X12141905Y-16740476D01*
X12322857Y-16740476D02*
X12322857Y-16635714D01*
X12313333Y-16616667D01*
X12294286Y-16607143D01*
X12256190Y-16607143D01*
X12237143Y-16616667D01*
X12322857Y-16730952D02*
X12303809Y-16740476D01*
X12256190Y-16740476D01*
X12237143Y-16730952D01*
X12227619Y-16711905D01*
X12227619Y-16692857D01*
X12237143Y-16673809D01*
X12256190Y-16664286D01*
X12303809Y-16664286D01*
X12322857Y-16654762D01*
X12418095Y-16607143D02*
X12418095Y-16807143D01*
X12418095Y-16616667D02*
X12437143Y-16607143D01*
X12475238Y-16607143D01*
X12494286Y-16616667D01*
X12503809Y-16626190D01*
X12513333Y-16645238D01*
X12513333Y-16702381D01*
X12503809Y-16721428D01*
X12494286Y-16730952D01*
X12475238Y-16740476D01*
X12437143Y-16740476D01*
X12418095Y-16730952D01*
X12599048Y-16721428D02*
X12608571Y-16730952D01*
X12599048Y-16740476D01*
X12589524Y-16730952D01*
X12599048Y-16721428D01*
X12599048Y-16740476D01*
X12599048Y-16616667D02*
X12608571Y-16626190D01*
X12599048Y-16635714D01*
X12589524Y-16626190D01*
X12599048Y-16616667D01*
X12599048Y-16635714D01*
M02*
