%TF.GenerationSoftware,KiCad,Pcbnew,(6.0.2)*%
%TF.CreationDate,2022-05-06T20:28:20+02:00*%
%TF.ProjectId,4 Channel Mixer,34204368-616e-46e6-956c-204d69786572,1.0*%
%TF.SameCoordinates,Original*%
%TF.FileFunction,Legend,Top*%
%TF.FilePolarity,Positive*%
%FSLAX46Y46*%
G04 Gerber Fmt 4.6, Leading zero omitted, Abs format (unit mm)*
G04 Created by KiCad (PCBNEW (6.0.2)) date 2022-05-06 20:28:20*
%MOMM*%
%LPD*%
G01*
G04 APERTURE LIST*
%ADD10C,0.200000*%
%ADD11C,0.180000*%
%ADD12C,0.120000*%
G04 APERTURE END LIST*
D10*
X125428571Y-75678571D02*
X125428571Y-74178571D01*
X126142857Y-75678571D02*
X126142857Y-74178571D01*
X127000000Y-75678571D01*
X127000000Y-74178571D01*
X128785714Y-74321428D02*
X128857142Y-74250000D01*
X129000000Y-74178571D01*
X129357142Y-74178571D01*
X129500000Y-74250000D01*
X129571428Y-74321428D01*
X129642857Y-74464285D01*
X129642857Y-74607142D01*
X129571428Y-74821428D01*
X128714285Y-75678571D01*
X129642857Y-75678571D01*
X126000000Y-134178571D02*
X126285714Y-134178571D01*
X126428571Y-134250000D01*
X126571428Y-134392857D01*
X126642857Y-134678571D01*
X126642857Y-135178571D01*
X126571428Y-135464285D01*
X126428571Y-135607142D01*
X126285714Y-135678571D01*
X126000000Y-135678571D01*
X125857142Y-135607142D01*
X125714285Y-135464285D01*
X125642857Y-135178571D01*
X125642857Y-134678571D01*
X125714285Y-134392857D01*
X125857142Y-134250000D01*
X126000000Y-134178571D01*
X127285714Y-134178571D02*
X127285714Y-135392857D01*
X127357142Y-135535714D01*
X127428571Y-135607142D01*
X127571428Y-135678571D01*
X127857142Y-135678571D01*
X128000000Y-135607142D01*
X128071428Y-135535714D01*
X128142857Y-135392857D01*
X128142857Y-134178571D01*
X128642857Y-134178571D02*
X129500000Y-134178571D01*
X129071428Y-135678571D02*
X129071428Y-134178571D01*
X135870000Y-134471071D02*
X135870000Y-132971071D01*
X136370000Y-134042500D01*
X136870000Y-132971071D01*
X136870000Y-134471071D01*
X138227142Y-134471071D02*
X138227142Y-133685357D01*
X138155714Y-133542500D01*
X138012857Y-133471071D01*
X137727142Y-133471071D01*
X137584285Y-133542500D01*
X138227142Y-134399642D02*
X138084285Y-134471071D01*
X137727142Y-134471071D01*
X137584285Y-134399642D01*
X137512857Y-134256785D01*
X137512857Y-134113928D01*
X137584285Y-133971071D01*
X137727142Y-133899642D01*
X138084285Y-133899642D01*
X138227142Y-133828214D01*
X138870000Y-134399642D02*
X139012857Y-134471071D01*
X139298571Y-134471071D01*
X139441428Y-134399642D01*
X139512857Y-134256785D01*
X139512857Y-134185357D01*
X139441428Y-134042500D01*
X139298571Y-133971071D01*
X139084285Y-133971071D01*
X138941428Y-133899642D01*
X138870000Y-133756785D01*
X138870000Y-133685357D01*
X138941428Y-133542500D01*
X139084285Y-133471071D01*
X139298571Y-133471071D01*
X139441428Y-133542500D01*
X139941428Y-133471071D02*
X140512857Y-133471071D01*
X140155714Y-132971071D02*
X140155714Y-134256785D01*
X140227142Y-134399642D01*
X140370000Y-134471071D01*
X140512857Y-134471071D01*
X141584285Y-134399642D02*
X141441428Y-134471071D01*
X141155714Y-134471071D01*
X141012857Y-134399642D01*
X140941428Y-134256785D01*
X140941428Y-133685357D01*
X141012857Y-133542500D01*
X141155714Y-133471071D01*
X141441428Y-133471071D01*
X141584285Y-133542500D01*
X141655714Y-133685357D01*
X141655714Y-133828214D01*
X140941428Y-133971071D01*
X142298571Y-134471071D02*
X142298571Y-133471071D01*
X142298571Y-133756785D02*
X142370000Y-133613928D01*
X142441428Y-133542500D01*
X142584285Y-133471071D01*
X142727142Y-133471071D01*
X138227142Y-136886071D02*
X137512857Y-136886071D01*
X137512857Y-135386071D01*
X139298571Y-136814642D02*
X139155714Y-136886071D01*
X138870000Y-136886071D01*
X138727142Y-136814642D01*
X138655714Y-136671785D01*
X138655714Y-136100357D01*
X138727142Y-135957500D01*
X138870000Y-135886071D01*
X139155714Y-135886071D01*
X139298571Y-135957500D01*
X139370000Y-136100357D01*
X139370000Y-136243214D01*
X138655714Y-136386071D01*
X139870000Y-135886071D02*
X140227142Y-136886071D01*
X140584285Y-135886071D01*
X141727142Y-136814642D02*
X141584285Y-136886071D01*
X141298571Y-136886071D01*
X141155714Y-136814642D01*
X141084285Y-136671785D01*
X141084285Y-136100357D01*
X141155714Y-135957500D01*
X141298571Y-135886071D01*
X141584285Y-135886071D01*
X141727142Y-135957500D01*
X141798571Y-136100357D01*
X141798571Y-136243214D01*
X141084285Y-136386071D01*
X142655714Y-136886071D02*
X142512857Y-136814642D01*
X142441428Y-136671785D01*
X142441428Y-135386071D01*
X135928571Y-75678571D02*
X135214285Y-75678571D01*
X135214285Y-74178571D01*
X137000000Y-75607142D02*
X136857142Y-75678571D01*
X136571428Y-75678571D01*
X136428571Y-75607142D01*
X136357142Y-75464285D01*
X136357142Y-74892857D01*
X136428571Y-74750000D01*
X136571428Y-74678571D01*
X136857142Y-74678571D01*
X137000000Y-74750000D01*
X137071428Y-74892857D01*
X137071428Y-75035714D01*
X136357142Y-75178571D01*
X137571428Y-74678571D02*
X137928571Y-75678571D01*
X138285714Y-74678571D01*
X139428571Y-75607142D02*
X139285714Y-75678571D01*
X139000000Y-75678571D01*
X138857142Y-75607142D01*
X138785714Y-75464285D01*
X138785714Y-74892857D01*
X138857142Y-74750000D01*
X139000000Y-74678571D01*
X139285714Y-74678571D01*
X139428571Y-74750000D01*
X139500000Y-74892857D01*
X139500000Y-75035714D01*
X138785714Y-75178571D01*
X140357142Y-75678571D02*
X140214285Y-75607142D01*
X140142857Y-75464285D01*
X140142857Y-74178571D01*
X142000000Y-74321428D02*
X142071428Y-74250000D01*
X142214285Y-74178571D01*
X142571428Y-74178571D01*
X142714285Y-74250000D01*
X142785714Y-74321428D01*
X142857142Y-74464285D01*
X142857142Y-74607142D01*
X142785714Y-74821428D01*
X141928571Y-75678571D01*
X142857142Y-75678571D01*
X130714285Y-42178571D02*
X130214285Y-41464285D01*
X129857142Y-42178571D02*
X129857142Y-40678571D01*
X130428571Y-40678571D01*
X130571428Y-40750000D01*
X130642857Y-40821428D01*
X130714285Y-40964285D01*
X130714285Y-41178571D01*
X130642857Y-41321428D01*
X130571428Y-41392857D01*
X130428571Y-41464285D01*
X129857142Y-41464285D01*
X131142857Y-40678571D02*
X132000000Y-40678571D01*
X131571428Y-42178571D02*
X131571428Y-40678571D01*
X132285714Y-40678571D02*
X133142857Y-40678571D01*
X132714285Y-42178571D02*
X132714285Y-40678571D01*
X135428571Y-41178571D02*
X135428571Y-42178571D01*
X135071428Y-40607142D02*
X134714285Y-41678571D01*
X135642857Y-41678571D01*
X137071428Y-42035714D02*
X137000000Y-42107142D01*
X136785714Y-42178571D01*
X136642857Y-42178571D01*
X136428571Y-42107142D01*
X136285714Y-41964285D01*
X136214285Y-41821428D01*
X136142857Y-41535714D01*
X136142857Y-41321428D01*
X136214285Y-41035714D01*
X136285714Y-40892857D01*
X136428571Y-40750000D01*
X136642857Y-40678571D01*
X136785714Y-40678571D01*
X137000000Y-40750000D01*
X137071428Y-40821428D01*
X137714285Y-42178571D02*
X137714285Y-40678571D01*
X138214285Y-41750000D01*
X138714285Y-40678571D01*
X138714285Y-42178571D01*
X139285714Y-40678571D02*
X140285714Y-42178571D01*
X140285714Y-40678571D02*
X139285714Y-42178571D01*
X135928571Y-95678571D02*
X135214285Y-95678571D01*
X135214285Y-94178571D01*
X137000000Y-95607142D02*
X136857142Y-95678571D01*
X136571428Y-95678571D01*
X136428571Y-95607142D01*
X136357142Y-95464285D01*
X136357142Y-94892857D01*
X136428571Y-94750000D01*
X136571428Y-94678571D01*
X136857142Y-94678571D01*
X137000000Y-94750000D01*
X137071428Y-94892857D01*
X137071428Y-95035714D01*
X136357142Y-95178571D01*
X137571428Y-94678571D02*
X137928571Y-95678571D01*
X138285714Y-94678571D01*
X139428571Y-95607142D02*
X139285714Y-95678571D01*
X139000000Y-95678571D01*
X138857142Y-95607142D01*
X138785714Y-95464285D01*
X138785714Y-94892857D01*
X138857142Y-94750000D01*
X139000000Y-94678571D01*
X139285714Y-94678571D01*
X139428571Y-94750000D01*
X139500000Y-94892857D01*
X139500000Y-95035714D01*
X138785714Y-95178571D01*
X140357142Y-95678571D02*
X140214285Y-95607142D01*
X140142857Y-95464285D01*
X140142857Y-94178571D01*
X141928571Y-94178571D02*
X142857142Y-94178571D01*
X142357142Y-94750000D01*
X142571428Y-94750000D01*
X142714285Y-94821428D01*
X142785714Y-94892857D01*
X142857142Y-95035714D01*
X142857142Y-95392857D01*
X142785714Y-95535714D01*
X142714285Y-95607142D01*
X142571428Y-95678571D01*
X142142857Y-95678571D01*
X142000000Y-95607142D01*
X141928571Y-95535714D01*
X125487142Y-144471071D02*
X125487142Y-142971071D01*
X126201428Y-144471071D02*
X126201428Y-142971071D01*
X127058571Y-144471071D01*
X127058571Y-142971071D01*
X127558571Y-142971071D02*
X128058571Y-144471071D01*
X128558571Y-142971071D01*
X129058571Y-143685357D02*
X129558571Y-143685357D01*
X129772857Y-144471071D02*
X129058571Y-144471071D01*
X129058571Y-142971071D01*
X129772857Y-142971071D01*
X131272857Y-144471071D02*
X130772857Y-143756785D01*
X130415714Y-144471071D02*
X130415714Y-142971071D01*
X130987142Y-142971071D01*
X131130000Y-143042500D01*
X131201428Y-143113928D01*
X131272857Y-143256785D01*
X131272857Y-143471071D01*
X131201428Y-143613928D01*
X131130000Y-143685357D01*
X130987142Y-143756785D01*
X130415714Y-143756785D01*
X131701428Y-142971071D02*
X132558571Y-142971071D01*
X132130000Y-144471071D02*
X132130000Y-142971071D01*
X133058571Y-143685357D02*
X133558571Y-143685357D01*
X133772857Y-144471071D02*
X133058571Y-144471071D01*
X133058571Y-142971071D01*
X133772857Y-142971071D01*
X134415714Y-144471071D02*
X134415714Y-142971071D01*
X134772857Y-142971071D01*
X134987142Y-143042500D01*
X135130000Y-143185357D01*
X135201428Y-143328214D01*
X135272857Y-143613928D01*
X135272857Y-143828214D01*
X135201428Y-144113928D01*
X135130000Y-144256785D01*
X134987142Y-144399642D01*
X134772857Y-144471071D01*
X134415714Y-144471071D01*
X125772857Y-145386071D02*
X126058571Y-145386071D01*
X126201428Y-145457500D01*
X126344285Y-145600357D01*
X126415714Y-145886071D01*
X126415714Y-146386071D01*
X126344285Y-146671785D01*
X126201428Y-146814642D01*
X126058571Y-146886071D01*
X125772857Y-146886071D01*
X125630000Y-146814642D01*
X125487142Y-146671785D01*
X125415714Y-146386071D01*
X125415714Y-145886071D01*
X125487142Y-145600357D01*
X125630000Y-145457500D01*
X125772857Y-145386071D01*
X127058571Y-145386071D02*
X127058571Y-146600357D01*
X127130000Y-146743214D01*
X127201428Y-146814642D01*
X127344285Y-146886071D01*
X127630000Y-146886071D01*
X127772857Y-146814642D01*
X127844285Y-146743214D01*
X127915714Y-146600357D01*
X127915714Y-145386071D01*
X128415714Y-145386071D02*
X129272857Y-145386071D01*
X128844285Y-146886071D02*
X128844285Y-145386071D01*
X125428571Y-55678571D02*
X125428571Y-54178571D01*
X126142857Y-55678571D02*
X126142857Y-54178571D01*
X127000000Y-55678571D01*
X127000000Y-54178571D01*
X129642857Y-55678571D02*
X128785714Y-55678571D01*
X129214285Y-55678571D02*
X129214285Y-54178571D01*
X129071428Y-54392857D01*
X128928571Y-54535714D01*
X128785714Y-54607142D01*
X125428571Y-115678571D02*
X125428571Y-114178571D01*
X126142857Y-115678571D02*
X126142857Y-114178571D01*
X127000000Y-115678571D01*
X127000000Y-114178571D01*
X129500000Y-114678571D02*
X129500000Y-115678571D01*
X129142857Y-114107142D02*
X128785714Y-115178571D01*
X129714285Y-115178571D01*
X125428571Y-95678571D02*
X125428571Y-94178571D01*
X126142857Y-95678571D02*
X126142857Y-94178571D01*
X127000000Y-95678571D01*
X127000000Y-94178571D01*
X128714285Y-94178571D02*
X129642857Y-94178571D01*
X129142857Y-94750000D01*
X129357142Y-94750000D01*
X129500000Y-94821428D01*
X129571428Y-94892857D01*
X129642857Y-95035714D01*
X129642857Y-95392857D01*
X129571428Y-95535714D01*
X129500000Y-95607142D01*
X129357142Y-95678571D01*
X128928571Y-95678571D01*
X128785714Y-95607142D01*
X128714285Y-95535714D01*
X135928571Y-55678571D02*
X135214285Y-55678571D01*
X135214285Y-54178571D01*
X137000000Y-55607142D02*
X136857142Y-55678571D01*
X136571428Y-55678571D01*
X136428571Y-55607142D01*
X136357142Y-55464285D01*
X136357142Y-54892857D01*
X136428571Y-54750000D01*
X136571428Y-54678571D01*
X136857142Y-54678571D01*
X137000000Y-54750000D01*
X137071428Y-54892857D01*
X137071428Y-55035714D01*
X136357142Y-55178571D01*
X137571428Y-54678571D02*
X137928571Y-55678571D01*
X138285714Y-54678571D01*
X139428571Y-55607142D02*
X139285714Y-55678571D01*
X139000000Y-55678571D01*
X138857142Y-55607142D01*
X138785714Y-55464285D01*
X138785714Y-54892857D01*
X138857142Y-54750000D01*
X139000000Y-54678571D01*
X139285714Y-54678571D01*
X139428571Y-54750000D01*
X139500000Y-54892857D01*
X139500000Y-55035714D01*
X138785714Y-55178571D01*
X140357142Y-55678571D02*
X140214285Y-55607142D01*
X140142857Y-55464285D01*
X140142857Y-54178571D01*
X142857142Y-55678571D02*
X142000000Y-55678571D01*
X142428571Y-55678571D02*
X142428571Y-54178571D01*
X142285714Y-54392857D01*
X142142857Y-54535714D01*
X142000000Y-54607142D01*
X135928571Y-115678571D02*
X135214285Y-115678571D01*
X135214285Y-114178571D01*
X137000000Y-115607142D02*
X136857142Y-115678571D01*
X136571428Y-115678571D01*
X136428571Y-115607142D01*
X136357142Y-115464285D01*
X136357142Y-114892857D01*
X136428571Y-114750000D01*
X136571428Y-114678571D01*
X136857142Y-114678571D01*
X137000000Y-114750000D01*
X137071428Y-114892857D01*
X137071428Y-115035714D01*
X136357142Y-115178571D01*
X137571428Y-114678571D02*
X137928571Y-115678571D01*
X138285714Y-114678571D01*
X139428571Y-115607142D02*
X139285714Y-115678571D01*
X139000000Y-115678571D01*
X138857142Y-115607142D01*
X138785714Y-115464285D01*
X138785714Y-114892857D01*
X138857142Y-114750000D01*
X139000000Y-114678571D01*
X139285714Y-114678571D01*
X139428571Y-114750000D01*
X139500000Y-114892857D01*
X139500000Y-115035714D01*
X138785714Y-115178571D01*
X140357142Y-115678571D02*
X140214285Y-115607142D01*
X140142857Y-115464285D01*
X140142857Y-114178571D01*
X142714285Y-114678571D02*
X142714285Y-115678571D01*
X142357142Y-114107142D02*
X142000000Y-115178571D01*
X142928571Y-115178571D01*
D11*
%TO.C,REF\u002A\u002A*%
X132001986Y-161069592D02*
X132083831Y-160414830D01*
X132039188Y-160295782D01*
X131927581Y-160236258D01*
X131689486Y-160236258D01*
X131562998Y-160295782D01*
X132009426Y-161010068D02*
X131882938Y-161069592D01*
X131585319Y-161069592D01*
X131473712Y-161010068D01*
X131429069Y-160891020D01*
X131443950Y-160771973D01*
X131518355Y-160652925D01*
X131644843Y-160593401D01*
X131942462Y-160593401D01*
X132068950Y-160533877D01*
X133311510Y-161069592D02*
X132969248Y-160474354D01*
X132597224Y-161069592D02*
X132753474Y-159819592D01*
X133229665Y-159819592D01*
X133341272Y-159879116D01*
X133393355Y-159938639D01*
X133437998Y-160057687D01*
X133415676Y-160236258D01*
X133341272Y-160355306D01*
X133274307Y-160414830D01*
X133147819Y-160474354D01*
X132671629Y-160474354D01*
X133824903Y-159819592D02*
X134539188Y-159819592D01*
X134025795Y-161069592D02*
X134182045Y-159819592D01*
X134784724Y-160236258D02*
X134978176Y-161069592D01*
X135379962Y-160236258D02*
X134978176Y-161069592D01*
X134821926Y-161367211D01*
X134754962Y-161426735D01*
X134628474Y-161486258D01*
X135729665Y-159819592D02*
X136443950Y-159819592D01*
X135930557Y-161069592D02*
X136086807Y-159819592D01*
X137187998Y-161010068D02*
X137061510Y-161069592D01*
X136823415Y-161069592D01*
X136711807Y-161010068D01*
X136667165Y-160891020D01*
X136726688Y-160414830D01*
X136801093Y-160295782D01*
X136927581Y-160236258D01*
X137165676Y-160236258D01*
X137277284Y-160295782D01*
X137321926Y-160414830D01*
X137307045Y-160533877D01*
X136696926Y-160652925D01*
X138311510Y-161069592D02*
X138393355Y-160414830D01*
X138348712Y-160295782D01*
X138237105Y-160236258D01*
X137999010Y-160236258D01*
X137872522Y-160295782D01*
X138318950Y-161010068D02*
X138192462Y-161069592D01*
X137894843Y-161069592D01*
X137783236Y-161010068D01*
X137738593Y-160891020D01*
X137753474Y-160771973D01*
X137827879Y-160652925D01*
X137954367Y-160593401D01*
X138251986Y-160593401D01*
X138378474Y-160533877D01*
D12*
X131007232Y-159304116D02*
X135007232Y-152304116D01*
X139007232Y-159304116D02*
X133007232Y-155804116D01*
X135007232Y-152304116D02*
X139007232Y-159304116D01*
X131007232Y-159304116D02*
X137007232Y-155804116D01*
X136207232Y-155104116D02*
G75*
G03*
X136207232Y-155104116I0J0D01*
G01*
X136007232Y-156104116D02*
G75*
G03*
X136007232Y-156104116I0J0D01*
G01*
X134207232Y-155504116D02*
G75*
G03*
X134207232Y-155504116I0J0D01*
G01*
X136807232Y-155704116D02*
G75*
G03*
X136807232Y-155704116I0J0D01*
G01*
X134407232Y-154904116D02*
G75*
G03*
X134407232Y-154904116I0J0D01*
G01*
X135407232Y-154704116D02*
G75*
G03*
X135407232Y-154704116I0J0D01*
G01*
X134807232Y-154504116D02*
G75*
G03*
X134807232Y-154504116I0J0D01*
G01*
X135207232Y-154904116D02*
G75*
G03*
X135207232Y-154904116I0J0D01*
G01*
X135807232Y-154704116D02*
G75*
G03*
X135807232Y-154704116I0J0D01*
G01*
X134407232Y-155704116D02*
G75*
G03*
X134407232Y-155704116I0J0D01*
G01*
X135207232Y-154104116D02*
G75*
G03*
X135207232Y-154104116I0J0D01*
G01*
X135407232Y-156704116D02*
G75*
G03*
X135407232Y-156704116I0J0D01*
G01*
X134207232Y-153904116D02*
G75*
G03*
X134207232Y-153904116I0J0D01*
G01*
X134807232Y-155704116D02*
G75*
G03*
X134807232Y-155704116I0J0D01*
G01*
X135007232Y-156304116D02*
G75*
G03*
X135007232Y-156304116I0J0D01*
G01*
X135407232Y-155504116D02*
G75*
G03*
X135407232Y-155504116I0J0D01*
G01*
X133807232Y-155504116D02*
G75*
G03*
X133807232Y-155504116I0J0D01*
G01*
X135007232Y-155504116D02*
G75*
G03*
X135007232Y-155504116I0J0D01*
G01*
X134607232Y-155104116D02*
G75*
G03*
X134607232Y-155104116I0J0D01*
G01*
X135007232Y-155904116D02*
G75*
G03*
X135007232Y-155904116I0J0D01*
G01*
X134607232Y-155504116D02*
G75*
G03*
X134607232Y-155504116I0J0D01*
G01*
X134207232Y-156304116D02*
G75*
G03*
X134207232Y-156304116I0J0D01*
G01*
X135007232Y-156704116D02*
G75*
G03*
X135007232Y-156704116I0J0D01*
G01*
X134807232Y-155304116D02*
G75*
G03*
X134807232Y-155304116I0J0D01*
G01*
X134407232Y-154104116D02*
G75*
G03*
X134407232Y-154104116I0J0D01*
G01*
X135407232Y-153104116D02*
G75*
G03*
X135407232Y-153104116I0J0D01*
G01*
X134607232Y-154704116D02*
G75*
G03*
X134607232Y-154704116I0J0D01*
G01*
X136407232Y-155304116D02*
G75*
G03*
X136407232Y-155304116I0J0D01*
G01*
X135207232Y-156104116D02*
G75*
G03*
X135207232Y-156104116I0J0D01*
G01*
X133807232Y-155904116D02*
G75*
G03*
X133807232Y-155904116I0J0D01*
G01*
X135207232Y-153704116D02*
G75*
G03*
X135207232Y-153704116I0J0D01*
G01*
X133807232Y-155104116D02*
G75*
G03*
X133807232Y-155104116I0J0D01*
G01*
X134607232Y-155904116D02*
G75*
G03*
X134607232Y-155904116I0J0D01*
G01*
X134807232Y-153304116D02*
G75*
G03*
X134807232Y-153304116I0J0D01*
G01*
X135607232Y-154504116D02*
G75*
G03*
X135607232Y-154504116I0J0D01*
G01*
X135207232Y-156504116D02*
G75*
G03*
X135207232Y-156504116I0J0D01*
G01*
X135807232Y-156304116D02*
G75*
G03*
X135807232Y-156304116I0J0D01*
G01*
X135207232Y-155304116D02*
G75*
G03*
X135207232Y-155304116I0J0D01*
G01*
X134807232Y-154904116D02*
G75*
G03*
X134807232Y-154904116I0J0D01*
G01*
X133407232Y-155904116D02*
G75*
G03*
X133407232Y-155904116I0J0D01*
G01*
X134607232Y-153104116D02*
G75*
G03*
X134607232Y-153104116I0J0D01*
G01*
X133407232Y-155504116D02*
G75*
G03*
X133407232Y-155504116I0J0D01*
G01*
X134807232Y-154104116D02*
G75*
G03*
X134807232Y-154104116I0J0D01*
G01*
X134807232Y-156104116D02*
G75*
G03*
X134807232Y-156104116I0J0D01*
G01*
X135607232Y-155304116D02*
G75*
G03*
X135607232Y-155304116I0J0D01*
G01*
X135007232Y-153904116D02*
G75*
G03*
X135007232Y-153904116I0J0D01*
G01*
X135607232Y-154104116D02*
G75*
G03*
X135607232Y-154104116I0J0D01*
G01*
X133607232Y-154904116D02*
G75*
G03*
X133607232Y-154904116I0J0D01*
G01*
X135007232Y-155104116D02*
G75*
G03*
X135007232Y-155104116I0J0D01*
G01*
X135207232Y-152904116D02*
G75*
G03*
X135207232Y-152904116I0J0D01*
G01*
X135607232Y-156504116D02*
G75*
G03*
X135607232Y-156504116I0J0D01*
G01*
X134007232Y-154504116D02*
G75*
G03*
X134007232Y-154504116I0J0D01*
G01*
X135007232Y-153104116D02*
G75*
G03*
X135007232Y-153104116I0J0D01*
G01*
X135407232Y-155904116D02*
G75*
G03*
X135407232Y-155904116I0J0D01*
G01*
X135807232Y-155504116D02*
G75*
G03*
X135807232Y-155504116I0J0D01*
G01*
X136007232Y-154504116D02*
G75*
G03*
X136007232Y-154504116I0J0D01*
G01*
X134407232Y-154504116D02*
G75*
G03*
X134407232Y-154504116I0J0D01*
G01*
X134407232Y-156504116D02*
G75*
G03*
X134407232Y-156504116I0J0D01*
G01*
X134007232Y-156104116D02*
G75*
G03*
X134007232Y-156104116I0J0D01*
G01*
X135607232Y-153704116D02*
G75*
G03*
X135607232Y-153704116I0J0D01*
G01*
X136207232Y-155504116D02*
G75*
G03*
X136207232Y-155504116I0J0D01*
G01*
X135007232Y-154704116D02*
G75*
G03*
X135007232Y-154704116I0J0D01*
G01*
X135407232Y-153904116D02*
G75*
G03*
X135407232Y-153904116I0J0D01*
G01*
X134607232Y-153504116D02*
G75*
G03*
X134607232Y-153504116I0J0D01*
G01*
X136407232Y-155704116D02*
G75*
G03*
X136407232Y-155704116I0J0D01*
G01*
X133807232Y-154704116D02*
G75*
G03*
X133807232Y-154704116I0J0D01*
G01*
X134207232Y-155904116D02*
G75*
G03*
X134207232Y-155904116I0J0D01*
G01*
X134607232Y-153904116D02*
G75*
G03*
X134607232Y-153904116I0J0D01*
G01*
X133614464Y-155705885D02*
G75*
G03*
X133614464Y-155705885I0J0D01*
G01*
X135407232Y-155104116D02*
G75*
G03*
X135407232Y-155104116I0J0D01*
G01*
X135607232Y-155704116D02*
G75*
G03*
X135607232Y-155704116I0J0D01*
G01*
X136007232Y-155304116D02*
G75*
G03*
X136007232Y-155304116I0J0D01*
G01*
X135807232Y-153904116D02*
G75*
G03*
X135807232Y-153904116I0J0D01*
G01*
X135207232Y-153304116D02*
G75*
G03*
X135207232Y-153304116I0J0D01*
G01*
X136207232Y-155904116D02*
G75*
G03*
X136207232Y-155904116I0J0D01*
G01*
X135207232Y-154504116D02*
G75*
G03*
X135207232Y-154504116I0J0D01*
G01*
X134207232Y-154304116D02*
G75*
G03*
X134207232Y-154304116I0J0D01*
G01*
X136007232Y-154904116D02*
G75*
G03*
X136007232Y-154904116I0J0D01*
G01*
X136007232Y-155704116D02*
G75*
G03*
X136007232Y-155704116I0J0D01*
G01*
X136207232Y-154704116D02*
G75*
G03*
X136207232Y-154704116I0J0D01*
G01*
X134607232Y-154304116D02*
G75*
G03*
X134607232Y-154304116I0J0D01*
G01*
X136607232Y-155504116D02*
G75*
G03*
X136607232Y-155504116I0J0D01*
G01*
X134007232Y-155304116D02*
G75*
G03*
X134007232Y-155304116I0J0D01*
G01*
X133607232Y-155304116D02*
G75*
G03*
X133607232Y-155304116I0J0D01*
G01*
X134407232Y-156104116D02*
G75*
G03*
X134407232Y-156104116I0J0D01*
G01*
X135207232Y-155704116D02*
G75*
G03*
X135207232Y-155704116I0J0D01*
G01*
X135607232Y-156104116D02*
G75*
G03*
X135607232Y-156104116I0J0D01*
G01*
X135807232Y-154304116D02*
G75*
G03*
X135807232Y-154304116I0J0D01*
G01*
X134807232Y-156504116D02*
G75*
G03*
X134807232Y-156504116I0J0D01*
G01*
X134807232Y-153704116D02*
G75*
G03*
X134807232Y-153704116I0J0D01*
G01*
X135407232Y-156304116D02*
G75*
G03*
X135407232Y-156304116I0J0D01*
G01*
X134407232Y-155304116D02*
G75*
G03*
X134407232Y-155304116I0J0D01*
G01*
X136600000Y-155905885D02*
G75*
G03*
X136600000Y-155905885I0J0D01*
G01*
X135807232Y-155104116D02*
G75*
G03*
X135807232Y-155104116I0J0D01*
G01*
X135607232Y-154904116D02*
G75*
G03*
X135607232Y-154904116I0J0D01*
G01*
X135407232Y-153504116D02*
G75*
G03*
X135407232Y-153504116I0J0D01*
G01*
X134007232Y-154904116D02*
G75*
G03*
X134007232Y-154904116I0J0D01*
G01*
X133607232Y-156104116D02*
G75*
G03*
X133607232Y-156104116I0J0D01*
G01*
X134207232Y-154704116D02*
G75*
G03*
X134207232Y-154704116I0J0D01*
G01*
X134207232Y-155104116D02*
G75*
G03*
X134207232Y-155104116I0J0D01*
G01*
X136007232Y-154104116D02*
G75*
G03*
X136007232Y-154104116I0J0D01*
G01*
X136407232Y-154904116D02*
G75*
G03*
X136407232Y-154904116I0J0D01*
G01*
X135807232Y-155904116D02*
G75*
G03*
X135807232Y-155904116I0J0D01*
G01*
X134007232Y-155704116D02*
G75*
G03*
X134007232Y-155704116I0J0D01*
G01*
X135407232Y-154304116D02*
G75*
G03*
X135407232Y-154304116I0J0D01*
G01*
X133207232Y-155704116D02*
G75*
G03*
X133207232Y-155704116I0J0D01*
G01*
X134807232Y-152904116D02*
G75*
G03*
X134807232Y-152904116I0J0D01*
G01*
X135007232Y-153504116D02*
G75*
G03*
X135007232Y-153504116I0J0D01*
G01*
X135007232Y-152704116D02*
G75*
G03*
X135007232Y-152704116I0J0D01*
G01*
X134407232Y-153704116D02*
G75*
G03*
X134407232Y-153704116I0J0D01*
G01*
X135007232Y-154304116D02*
G75*
G03*
X135007232Y-154304116I0J0D01*
G01*
X134607232Y-156304116D02*
G75*
G03*
X134607232Y-156304116I0J0D01*
G01*
%TD*%
M02*
